<svg xmlns="http://www.w3.org/2000/svg" width="924" height="3536" viewBox="0 0 924 3536" role="img" aria-label="プロジェクトタイムライン">
<style>
    text { font-family: ui-sans-serif, system-ui, -apple-system, BlinkMacSystemFont, 'Segoe UI', sans-serif; fill: #1f2937; }
    .title { font-size: 18px; font-weight: 700; fill: #0f172a; }
    .caption { font-size: 11px; fill: #64748b; }
    .section { font-size: 13px; font-weight: 700; fill: #0f172a; }
    .label { font-size: 12px; font-weight: 500; }
    .axis { font-size: 11px; fill: #475569; }
    .grid { stroke: #d7dee7; stroke-width: 1; }
    .row-grid { stroke: #edf2f7; stroke-width: 1; }
    .shade { fill: #f8fafc; }
    .holiday { fill: #eff6ff; }
    .legend-label { font-size: 11px; fill: #475569; }
  </style>
<rect x="0" y="0" width="924" height="3536" fill="#fffdf8" />
<rect x="0" y="0" width="380" height="3536" fill="#fffaf0" />
<rect x="380" y="0" width="544" height="3536" fill="#ffffff" />
<text class="title" x="16" y="28">プロジェクトタイムライン</text>
<text class="caption" x="16" y="48">1 タスク 1 行で表示します。1 日の長さは 8 時間で、休日と週末は空白のままとし、次の稼働日に作業を再開します。</text>
<rect x="0" y="72" width="924" height="28" fill="#fff7ed" />
<rect x="16" y="64" width="14" height="14" rx="3" fill="#d1d5db" />
<text class="legend-label" x="36" y="78">todo</text>
<rect x="92" y="64" width="14" height="14" rx="3" fill="#2563eb" />
<text class="legend-label" x="112" y="78">doing</text>
<rect x="168" y="64" width="14" height="14" rx="3" fill="#16a34a" />
<text class="legend-label" x="188" y="78">done</text>
<rect x="244" y="64" width="14" height="14" rx="3" fill="#f59e0b" />
<text class="legend-label" x="264" y="78">blocked</text>
<rect x="320" y="64" width="14" height="14" rx="3" fill="#dc2626" />
<text class="legend-label" x="340" y="78">critical</text>
<rect x="396" y="64" width="14" height="14" fill="#eff6ff" />
<text class="legend-label" x="416" y="78">holiday</text>
<rect x="486" y="64" width="14" height="14" fill="#f8fafc" stroke="#d7dee7" />
<text class="legend-label" x="506" y="78">weekend</text>
<line class="grid" x1="380" y1="88" x2="380" y2="3504" />
<text class="axis" x="386" y="90">03/16</text>
<line class="grid" x1="436" y1="88" x2="436" y2="3504" />
<text class="axis" x="442" y="90">03/17</text>
<line class="grid" x1="492" y1="88" x2="492" y2="3504" />
<text class="axis" x="498" y="90">03/18</text>
<line class="grid" x1="548" y1="88" x2="548" y2="3504" />
<text class="axis" x="554" y="90">03/19</text>
<rect class="holiday" x="604" y="88" width="56" height="3428" />
<line class="grid" x1="604" y1="88" x2="604" y2="3504" />
<text class="axis" x="610" y="90">03/20</text>
<rect class="shade" x="660" y="88" width="56" height="3428" />
<line class="grid" x1="660" y1="88" x2="660" y2="3504" />
<text class="axis" x="666" y="90">03/21</text>
<rect class="shade" x="716" y="88" width="56" height="3428" />
<line class="grid" x1="716" y1="88" x2="716" y2="3504" />
<text class="axis" x="722" y="90">03/22</text>
<line class="grid" x1="772" y1="88" x2="772" y2="3504" />
<text class="axis" x="778" y="90">03/23</text>
<line class="grid" x1="828" y1="88" x2="828" y2="3504" />
<text class="axis" x="834" y="90">03/24</text>
<line class="grid" x1="884" y1="88" x2="884" y2="3504" />
<rect x="0" y="90" width="924" height="30" fill="#f1f5f9" />
<text class="section" x="16" y="108">milestones</text>
<line class="grid" x1="0" y1="116" x2="924" y2="116" />
<text class="label" x="16" y="146">M-SDH-100 スケジュールキックオフ</text>
<line class="row-grid" x1="0" y1="154" x2="924" y2="154" />
<polygon points="380,137 387,144 380,151 373,144" fill="#b45309" />
<text class="label" x="16" y="170">M-SDH-400 品質ベースライン確定</text>
<line class="row-grid" x1="0" y1="178" x2="924" y2="178" />
<polygon points="520,161 527,168 520,175 513,168" fill="#b45309" />
<text class="label" x="16" y="194">M-SDH-200 ガバナンスベースライン確定</text>
<line class="row-grid" x1="0" y1="202" x2="924" y2="202" />
<polygon points="548,185 555,192 548,199 541,192" fill="#b45309" />
<text class="label" x="16" y="218">M-SDH-300 業務・非機能要件ベースライン確定</text>
<line class="row-grid" x1="0" y1="226" x2="924" y2="226" />
<polygon points="772,209 779,216 772,223 765,216" fill="#b45309" />
<text class="label" x="16" y="242">M-SDH-350 設計ベースライン確定</text>
<line class="row-grid" x1="0" y1="250" x2="924" y2="250" />
<polygon points="786,233 793,240 786,247 779,240" fill="#b45309" />
<text class="label" x="16" y="266">M-SDH-999 prj-0001 スケジュールスコープ完了</text>
<line class="row-grid" x1="0" y1="274" x2="924" y2="274" />
<polygon points="786,257 793,264 786,271 779,264" fill="#b45309" />
<rect x="0" y="272" width="924" height="30" fill="#f1f5f9" />
<text class="section" x="16" y="290">business</text>
<line class="grid" x1="0" y1="298" x2="924" y2="298" />
<text class="label" x="16" y="328">T-SDH-BIZ-010 業務プロセス仕様ルールの起草・レビュー</text>
<line class="row-grid" x1="0" y1="336" x2="924" y2="336" />
<rect x="380" y="314" width="28" height="12" rx="4" fill="#2563eb" stroke="#334155" stroke-width="0.75" opacity="0.94" />
<text class="label" x="16" y="352">T-SDH-BIZ-030 業務データディクショナリルールの起草・レビュー</text>
<line class="row-grid" x1="0" y1="360" x2="924" y2="360" />
<rect x="380" y="338" width="28" height="12" rx="4" fill="#d1d5db" stroke="#9ca3af" stroke-width="0.75" opacity="0.94" />
<text class="label" x="16" y="376">T-SDH-BIZ-060 用語集ルールの起草・レビュー</text>
<line class="row-grid" x1="0" y1="384" x2="924" y2="384" />
<rect x="380" y="362" width="28" height="12" rx="4" fill="#d1d5db" stroke="#9ca3af" stroke-width="0.75" opacity="0.94" />
<text class="label" x="16" y="400">T-SDH-BIZ-070 リファレンスデータルールの起草・レビュー</text>
<line class="row-grid" x1="0" y1="408" x2="924" y2="408" />
<rect x="380" y="386" width="56" height="12" rx="4" fill="#d1d5db" stroke="#9ca3af" stroke-width="0.75" opacity="0.94" />
<text class="label" x="16" y="424">T-SDH-BIZ-011-INS 業務プロセス仕様の起草・レビュー instruction.md の起草・レビュー</text>
<line class="row-grid" x1="0" y1="432" x2="924" y2="432" />
<rect x="408" y="410" width="14" height="12" rx="4" fill="#d1d5db" stroke="#9ca3af" stroke-width="0.75" opacity="0.94" />
<text class="label" x="16" y="448">T-SDH-BIZ-020 ビジネスルールのルール起草・レビュー</text>
<line class="row-grid" x1="0" y1="456" x2="924" y2="456" />
<rect x="408" y="434" width="28" height="12" rx="4" fill="#d1d5db" stroke="#9ca3af" stroke-width="0.75" opacity="0.94" />
<text class="label" x="16" y="472">T-SDH-BIZ-031-INS 業務データディクショナリの起草・レビュー instruction.md の起草・レビュー</text>
<line class="row-grid" x1="0" y1="480" x2="924" y2="480" />
<rect x="408" y="458" width="14" height="12" rx="4" fill="#d1d5db" stroke="#9ca3af" stroke-width="0.75" opacity="0.94" />
<text class="label" x="16" y="496">T-SDH-BIZ-040 帳票仕様ルールの起草・レビュー</text>
<line class="row-grid" x1="0" y1="504" x2="924" y2="504" />
<rect x="408" y="482" width="28" height="12" rx="4" fill="#d1d5db" stroke="#9ca3af" stroke-width="0.75" opacity="0.94" />
<text class="label" x="16" y="520">T-SDH-BIZ-050 画面仕様ルールの起草・レビュー</text>
<line class="row-grid" x1="0" y1="528" x2="924" y2="528" />
<rect x="408" y="506" width="28" height="12" rx="4" fill="#d1d5db" stroke="#9ca3af" stroke-width="0.75" opacity="0.94" />
<text class="label" x="16" y="544">T-SDH-BIZ-061-INS 用語集の起草・レビュー instruction.md の起草・レビュー</text>
<line class="row-grid" x1="0" y1="552" x2="924" y2="552" />
<rect x="408" y="530" width="14" height="12" rx="4" fill="#d1d5db" stroke="#9ca3af" stroke-width="0.75" opacity="0.94" />
<text class="label" x="16" y="568">T-SDH-BIZ-100 概念データストアルールの起草・レビュー</text>
<line class="row-grid" x1="0" y1="576" x2="924" y2="576" />
<rect x="408" y="554" width="28" height="12" rx="4" fill="#d1d5db" stroke="#9ca3af" stroke-width="0.75" opacity="0.94" />
<text class="label" x="16" y="592">T-SDH-BIZ-110 概念状態遷移ルールの起草・レビュー</text>
<line class="row-grid" x1="0" y1="600" x2="924" y2="600" />
<rect x="408" y="578" width="28" height="12" rx="4" fill="#d1d5db" stroke="#9ca3af" stroke-width="0.75" opacity="0.94" />
<rect x="436" y="578" width="14" height="12" rx="4" fill="#d1d5db" stroke="#9ca3af" stroke-width="0.75" opacity="0.94" />
<text class="label" x="16" y="616">T-SDH-BIZ-120 概念クラス図ルールの起草・レビュー</text>
<line class="row-grid" x1="0" y1="624" x2="924" y2="624" />
<rect x="408" y="602" width="28" height="12" rx="4" fill="#d1d5db" stroke="#9ca3af" stroke-width="0.75" opacity="0.94" />
<text class="label" x="16" y="640">T-SDH-BIZ-011-SMP 業務プロセス仕様の起草・レビュー sample.md の起草・レビュー</text>
<line class="row-grid" x1="0" y1="648" x2="924" y2="648" />
<rect x="422" y="626" width="14" height="12" rx="4" fill="#d1d5db" stroke="#9ca3af" stroke-width="0.75" opacity="0.94" />
<text class="label" x="16" y="664">T-SDH-BIZ-031-SMP 業務データディクショナリの起草・レビュー sample.md の起草・レビュー</text>
<line class="row-grid" x1="0" y1="672" x2="924" y2="672" />
<rect x="422" y="650" width="14" height="12" rx="4" fill="#d1d5db" stroke="#9ca3af" stroke-width="0.75" opacity="0.94" />
<text class="label" x="16" y="688">T-SDH-BIZ-061-SMP 用語集の起草・レビュー sample.md の起草・レビュー</text>
<line class="row-grid" x1="0" y1="696" x2="924" y2="696" />
<rect x="422" y="674" width="14" height="12" rx="4" fill="#d1d5db" stroke="#9ca3af" stroke-width="0.75" opacity="0.94" />
<text class="label" x="16" y="712">T-SDH-BIZ-021-INS ビジネスルールの起草・レビュー instruction.md の起草・レビュー</text>
<line class="row-grid" x1="0" y1="720" x2="924" y2="720" />
<rect x="436" y="698" width="14" height="12" rx="4" fill="#d1d5db" stroke="#9ca3af" stroke-width="0.75" opacity="0.94" />
<text class="label" x="16" y="736">T-SDH-BIZ-041-INS 帳票仕様の起草・レビュー instruction.md の起草・レビュー</text>
<line class="row-grid" x1="0" y1="744" x2="924" y2="744" />
<rect x="436" y="722" width="14" height="12" rx="4" fill="#d1d5db" stroke="#9ca3af" stroke-width="0.75" opacity="0.94" />
<text class="label" x="16" y="760">T-SDH-BIZ-051-INS 画面仕様の起草・レビュー instruction.md の起草・レビュー</text>
<line class="row-grid" x1="0" y1="768" x2="924" y2="768" />
<rect x="436" y="746" width="14" height="12" rx="4" fill="#d1d5db" stroke="#9ca3af" stroke-width="0.75" opacity="0.94" />
<text class="label" x="16" y="784">T-SDH-BIZ-071-INS リファレンスデータの起草・レビュー instruction.md の起草・レビュー</text>
<line class="row-grid" x1="0" y1="792" x2="924" y2="792" />
<rect x="436" y="770" width="14" height="12" rx="4" fill="#d1d5db" stroke="#9ca3af" stroke-width="0.75" opacity="0.94" />
<text class="label" x="16" y="808">T-SDH-BIZ-080 業務イベント仕様ルールの起草・レビュー</text>
<line class="row-grid" x1="0" y1="816" x2="924" y2="816" />
<rect x="436" y="794" width="42" height="12" rx="4" fill="#d1d5db" stroke="#9ca3af" stroke-width="0.75" opacity="0.94" />
<text class="label" x="16" y="832">T-SDH-BIZ-101-INS 概念データストアの起草・レビュー instruction.md の起草・レビュー</text>
<line class="row-grid" x1="0" y1="840" x2="924" y2="840" />
<rect x="436" y="818" width="14" height="12" rx="4" fill="#d1d5db" stroke="#9ca3af" stroke-width="0.75" opacity="0.94" />
<text class="label" x="16" y="856">T-SDH-BIZ-121-INS 概念クラス図の起草・レビュー instruction.md の起草・レビュー</text>
<line class="row-grid" x1="0" y1="864" x2="924" y2="864" />
<rect x="436" y="842" width="14" height="12" rx="4" fill="#d1d5db" stroke="#9ca3af" stroke-width="0.75" opacity="0.94" />
<text class="label" x="16" y="880">T-SDH-BIZ-021-SMP ビジネスルールの起草・レビュー sample.md の起草・レビュー</text>
<line class="row-grid" x1="0" y1="888" x2="924" y2="888" />
<rect x="450" y="866" width="14" height="12" rx="4" fill="#d1d5db" stroke="#9ca3af" stroke-width="0.75" opacity="0.94" />
<text class="label" x="16" y="904">T-SDH-BIZ-041-SMP 帳票仕様の起草・レビュー sample.md の起草・レビュー</text>
<line class="row-grid" x1="0" y1="912" x2="924" y2="912" />
<rect x="450" y="890" width="14" height="12" rx="4" fill="#d1d5db" stroke="#9ca3af" stroke-width="0.75" opacity="0.94" />
<text class="label" x="16" y="928">T-SDH-BIZ-051-SMP 画面仕様の起草・レビュー sample.md の起草・レビュー</text>
<line class="row-grid" x1="0" y1="936" x2="924" y2="936" />
<rect x="450" y="914" width="14" height="12" rx="4" fill="#d1d5db" stroke="#9ca3af" stroke-width="0.75" opacity="0.94" />
<text class="label" x="16" y="952">T-SDH-BIZ-071-SMP リファレンスデータの起草・レビュー sample.md の起草・レビュー</text>
<line class="row-grid" x1="0" y1="960" x2="924" y2="960" />
<rect x="450" y="938" width="14" height="12" rx="4" fill="#d1d5db" stroke="#9ca3af" stroke-width="0.75" opacity="0.94" />
<text class="label" x="16" y="976">T-SDH-BIZ-101-SMP 概念データストアの起草・レビュー sample.md の起草・レビュー</text>
<line class="row-grid" x1="0" y1="984" x2="924" y2="984" />
<rect x="450" y="962" width="14" height="12" rx="4" fill="#d1d5db" stroke="#9ca3af" stroke-width="0.75" opacity="0.94" />
<text class="label" x="16" y="1000">T-SDH-BIZ-111-INS 概念状態遷移の起草・レビュー instruction.md の起草・レビュー</text>
<line class="row-grid" x1="0" y1="1008" x2="924" y2="1008" />
<rect x="450" y="986" width="14" height="12" rx="4" fill="#d1d5db" stroke="#9ca3af" stroke-width="0.75" opacity="0.94" />
<text class="label" x="16" y="1024">T-SDH-BIZ-121-SMP 概念クラス図の起草・レビュー sample.md の起草・レビュー</text>
<line class="row-grid" x1="0" y1="1032" x2="924" y2="1032" />
<rect x="450" y="1010" width="14" height="12" rx="4" fill="#d1d5db" stroke="#9ca3af" stroke-width="0.75" opacity="0.94" />
<text class="label" x="16" y="1048">T-SDH-BIZ-111-SMP 概念状態遷移の起草・レビュー sample.md の起草・レビュー</text>
<line class="row-grid" x1="0" y1="1056" x2="924" y2="1056" />
<rect x="464" y="1034" width="14" height="12" rx="4" fill="#d1d5db" stroke="#9ca3af" stroke-width="0.75" opacity="0.94" />
<text class="label" x="16" y="1072">T-SDH-BIZ-081-INS 業務イベント仕様の起草・レビュー instruction.md の起草・レビュー</text>
<line class="row-grid" x1="0" y1="1080" x2="924" y2="1080" />
<rect x="478" y="1058" width="14" height="12" rx="4" fill="#d1d5db" stroke="#9ca3af" stroke-width="0.75" opacity="0.94" />
<text class="label" x="16" y="1096">T-SDH-BIZ-090 概念データフロールールの起草・レビュー</text>
<line class="row-grid" x1="0" y1="1104" x2="924" y2="1104" />
<rect x="478" y="1082" width="14" height="12" rx="4" fill="#d1d5db" stroke="#9ca3af" stroke-width="0.75" opacity="0.94" />
<rect x="492" y="1082" width="28" height="12" rx="4" fill="#d1d5db" stroke="#9ca3af" stroke-width="0.75" opacity="0.94" />
<text class="label" x="16" y="1120">T-SDH-BIZ-130 システム機能一覧ルールの起草・レビュー</text>
<line class="row-grid" x1="0" y1="1128" x2="924" y2="1128" />
<rect x="478" y="1106" width="14" height="12" rx="4" fill="#d1d5db" stroke="#9ca3af" stroke-width="0.75" opacity="0.94" />
<rect x="492" y="1106" width="28" height="12" rx="4" fill="#d1d5db" stroke="#9ca3af" stroke-width="0.75" opacity="0.94" />
<text class="label" x="16" y="1144">T-SDH-BIZ-081-SMP 業務イベント仕様の起草・レビュー sample.md の起草・レビュー</text>
<line class="row-grid" x1="0" y1="1152" x2="924" y2="1152" />
<rect x="492" y="1130" width="14" height="12" rx="4" fill="#d1d5db" stroke="#9ca3af" stroke-width="0.75" opacity="0.94" />
<text class="label" x="16" y="1168">T-SDH-BIZ-091-INS 概念データフローの起草・レビュー instruction.md の起草・レビュー</text>
<line class="row-grid" x1="0" y1="1176" x2="924" y2="1176" />
<rect x="520" y="1154" width="14" height="12" rx="4" fill="#d1d5db" stroke="#9ca3af" stroke-width="0.75" opacity="0.94" />
<text class="label" x="16" y="1192">T-SDH-BIZ-131-INS システム機能一覧の起草・レビュー instruction.md の起草・レビュー</text>
<line class="row-grid" x1="0" y1="1200" x2="924" y2="1200" />
<rect x="520" y="1178" width="14" height="12" rx="4" fill="#d1d5db" stroke="#9ca3af" stroke-width="0.75" opacity="0.94" />
<text class="label" x="16" y="1216">T-SDH-BIZ-091-SMP 概念データフローの起草・レビュー sample.md の起草・レビュー</text>
<line class="row-grid" x1="0" y1="1224" x2="924" y2="1224" />
<rect x="534" y="1202" width="14" height="12" rx="4" fill="#d1d5db" stroke="#9ca3af" stroke-width="0.75" opacity="0.94" />
<text class="label" x="16" y="1240">T-SDH-BIZ-131-SMP システム機能一覧の起草・レビュー sample.md の起草・レビュー</text>
<line class="row-grid" x1="0" y1="1248" x2="924" y2="1248" />
<rect x="534" y="1226" width="14" height="12" rx="4" fill="#d1d5db" stroke="#9ca3af" stroke-width="0.75" opacity="0.94" />
<text class="label" x="16" y="1264">T-SDH-BIZ-140 業務受入条件ルールの起草・レビュー</text>
<line class="row-grid" x1="0" y1="1272" x2="924" y2="1272" />
<rect x="548" y="1250" width="28" height="12" rx="4" fill="#d1d5db" stroke="#9ca3af" stroke-width="0.75" opacity="0.94" />
<text class="label" x="16" y="1288">T-SDH-BIZ-141-INS 業務受入条件の起草・レビュー instruction.md の起草・レビュー</text>
<line class="row-grid" x1="0" y1="1296" x2="924" y2="1296" />
<rect x="576" y="1274" width="14" height="12" rx="4" fill="#d1d5db" stroke="#9ca3af" stroke-width="0.75" opacity="0.94" />
<text class="label" x="16" y="1312">T-SDH-BIZ-141-SMP 業務受入条件の起草・レビュー sample.md の起草・レビュー</text>
<line class="row-grid" x1="0" y1="1320" x2="924" y2="1320" />
<rect x="590" y="1298" width="14" height="12" rx="4" fill="#d1d5db" stroke="#9ca3af" stroke-width="0.75" opacity="0.94" />
<text class="label" x="16" y="1336">M-SDH-BIZ-900 業務ドメイン完了</text>
<line class="row-grid" x1="0" y1="1344" x2="924" y2="1344" />
<polygon points="772,1327 779,1334 772,1341 765,1334" fill="#b45309" />
<rect x="0" y="1342" width="924" height="30" fill="#f1f5f9" />
<text class="section" x="16" y="1360">design</text>
<line class="grid" x1="0" y1="1368" x2="924" y2="1368" />
<text class="label" x="16" y="1398">T-SDH-DES-010 外部インターフェースルールの起草・レビュー</text>
<line class="row-grid" x1="0" y1="1406" x2="924" y2="1406" />
<rect x="380" y="1384" width="56" height="12" rx="4" fill="#d1d5db" stroke="#9ca3af" stroke-width="0.75" opacity="0.94" />
<rect x="436" y="1384" width="14" height="12" rx="4" fill="#d1d5db" stroke="#9ca3af" stroke-width="0.75" opacity="0.94" />
<text class="label" x="16" y="1422">T-SDH-DES-020 C4 コンテキスト図ルールの起草・レビュー</text>
<line class="row-grid" x1="0" y1="1430" x2="924" y2="1430" />
<rect x="380" y="1408" width="42" height="12" rx="4" fill="#dc2626" stroke="#991b1b" stroke-width="1.25" opacity="0.94" />
<text class="label" x="16" y="1446">T-SDH-DES-060 技術スタック定義ルールの起草・レビュー</text>
<line class="row-grid" x1="0" y1="1454" x2="924" y2="1454" />
<rect x="380" y="1432" width="28" height="12" rx="4" fill="#d1d5db" stroke="#9ca3af" stroke-width="0.75" opacity="0.94" />
<text class="label" x="16" y="1470">T-SDH-DES-061-INS 技術スタック定義の起草・レビュー instruction.md の起草・レビュー</text>
<line class="row-grid" x1="0" y1="1478" x2="924" y2="1478" />
<rect x="408" y="1456" width="14" height="12" rx="4" fill="#d1d5db" stroke="#9ca3af" stroke-width="0.75" opacity="0.94" />
<text class="label" x="16" y="1494">T-SDH-DES-021-INS C4 コンテキスト図の起草・レビュー instruction.md の起草・レビュー</text>
<line class="row-grid" x1="0" y1="1502" x2="924" y2="1502" />
<rect x="422" y="1480" width="14" height="12" rx="4" fill="#d1d5db" stroke="#9ca3af" stroke-width="0.75" opacity="0.94" />
<text class="label" x="16" y="1518">T-SDH-DES-030 C4 コンテナ図ルールの起草・レビュー</text>
<line class="row-grid" x1="0" y1="1526" x2="924" y2="1526" />
<rect x="422" y="1504" width="14" height="12" rx="4" fill="#dc2626" stroke="#991b1b" stroke-width="1.25" opacity="0.94" />
<rect x="436" y="1504" width="28" height="12" rx="4" fill="#dc2626" stroke="#991b1b" stroke-width="1.25" opacity="0.94" />
<text class="label" x="16" y="1542">T-SDH-DES-050 インフラ構成図ルールの起草・レビュー</text>
<line class="row-grid" x1="0" y1="1550" x2="924" y2="1550" />
<rect x="422" y="1528" width="14" height="12" rx="4" fill="#d1d5db" stroke="#9ca3af" stroke-width="0.75" opacity="0.94" />
<rect x="436" y="1528" width="14" height="12" rx="4" fill="#d1d5db" stroke="#9ca3af" stroke-width="0.75" opacity="0.94" />
<text class="label" x="16" y="1566">T-SDH-DES-061-SMP 技術スタック定義の起草・レビュー sample.md の起草・レビュー</text>
<line class="row-grid" x1="0" y1="1574" x2="924" y2="1574" />
<rect x="422" y="1552" width="14" height="12" rx="4" fill="#d1d5db" stroke="#9ca3af" stroke-width="0.75" opacity="0.94" />
<text class="label" x="16" y="1590">T-SDH-DES-021-SMP C4 コンテキスト図の起草・レビュー sample.md の起草・レビュー</text>
<line class="row-grid" x1="0" y1="1598" x2="924" y2="1598" />
<rect x="436" y="1576" width="14" height="12" rx="4" fill="#d1d5db" stroke="#9ca3af" stroke-width="0.75" opacity="0.94" />
<text class="label" x="16" y="1614">T-SDH-DES-011-INS 外部インターフェースの起草・レビュー instruction.md の起草・レビュー</text>
<line class="row-grid" x1="0" y1="1622" x2="924" y2="1622" />
<rect x="450" y="1600" width="28" height="12" rx="4" fill="#d1d5db" stroke="#9ca3af" stroke-width="0.75" opacity="0.94" />
<text class="label" x="16" y="1638">T-SDH-DES-051-INS インフラ構成図の起草・レビュー instruction.md の起草・レビュー</text>
<line class="row-grid" x1="0" y1="1646" x2="924" y2="1646" />
<rect x="450" y="1624" width="14" height="12" rx="4" fill="#d1d5db" stroke="#9ca3af" stroke-width="0.75" opacity="0.94" />
<text class="label" x="16" y="1662">T-SDH-DES-031-INS C4 コンテナ図の起草・レビュー instruction.md の起草・レビュー</text>
<line class="row-grid" x1="0" y1="1670" x2="924" y2="1670" />
<rect x="464" y="1648" width="14" height="12" rx="4" fill="#d1d5db" stroke="#9ca3af" stroke-width="0.75" opacity="0.94" />
<text class="label" x="16" y="1686">T-SDH-DES-040 C4 コンポーネント図ルールの起草・レビュー</text>
<line class="row-grid" x1="0" y1="1694" x2="924" y2="1694" />
<rect x="464" y="1672" width="28" height="12" rx="4" fill="#dc2626" stroke="#991b1b" stroke-width="1.25" opacity="0.94" />
<rect x="492" y="1672" width="14" height="12" rx="4" fill="#dc2626" stroke="#991b1b" stroke-width="1.25" opacity="0.94" />
<text class="label" x="16" y="1710">T-SDH-DES-051-SMP インフラ構成図の起草・レビュー sample.md の起草・レビュー</text>
<line class="row-grid" x1="0" y1="1718" x2="924" y2="1718" />
<rect x="464" y="1696" width="14" height="12" rx="4" fill="#d1d5db" stroke="#9ca3af" stroke-width="0.75" opacity="0.94" />
<text class="label" x="16" y="1734">T-SDH-DES-011-SMP 外部インターフェースの起草・レビュー sample.md の起草・レビュー</text>
<line class="row-grid" x1="0" y1="1742" x2="924" y2="1742" />
<rect x="478" y="1720" width="14" height="12" rx="4" fill="#d1d5db" stroke="#9ca3af" stroke-width="0.75" opacity="0.94" />
<text class="label" x="16" y="1758">T-SDH-DES-031-SMP C4 コンテナ図の起草・レビュー sample.md の起草・レビュー</text>
<line class="row-grid" x1="0" y1="1766" x2="924" y2="1766" />
<rect x="478" y="1744" width="14" height="12" rx="4" fill="#d1d5db" stroke="#9ca3af" stroke-width="0.75" opacity="0.94" />
<text class="label" x="16" y="1782">T-SDH-DES-041-INS C4 コンポーネント図の起草・レビュー instruction.md の起草・レビュー</text>
<line class="row-grid" x1="0" y1="1790" x2="924" y2="1790" />
<rect x="506" y="1768" width="14" height="12" rx="4" fill="#dc2626" stroke="#991b1b" stroke-width="1.25" opacity="0.94" />
<text class="label" x="16" y="1806">T-SDH-DES-041-SMP C4 コンポーネント図の起草・レビュー sample.md の起草・レビュー</text>
<line class="row-grid" x1="0" y1="1814" x2="924" y2="1814" />
<rect x="520" y="1792" width="14" height="12" rx="4" fill="#dc2626" stroke="#991b1b" stroke-width="1.25" opacity="0.94" />
<text class="label" x="16" y="1830">T-SDH-DES-070 システム設計ルールの起草・レビュー</text>
<line class="row-grid" x1="0" y1="1838" x2="924" y2="1838" />
<rect x="534" y="1816" width="14" height="12" rx="4" fill="#dc2626" stroke="#991b1b" stroke-width="1.25" opacity="0.94" />
<rect x="548" y="1816" width="42" height="12" rx="4" fill="#dc2626" stroke="#991b1b" stroke-width="1.25" opacity="0.94" />
<text class="label" x="16" y="1854">T-SDH-DES-071-INS システム設計の起草・レビュー instruction.md の起草・レビュー</text>
<line class="row-grid" x1="0" y1="1862" x2="924" y2="1862" />
<rect x="590" y="1840" width="14" height="12" rx="4" fill="#dc2626" stroke="#991b1b" stroke-width="1.25" opacity="0.94" />
<text class="label" x="16" y="1878">T-SDH-DES-071-SMP システム設計の起草・レビュー sample.md の起草・レビュー</text>
<line class="row-grid" x1="0" y1="1886" x2="924" y2="1886" />
<rect x="772" y="1864" width="14" height="12" rx="4" fill="#dc2626" stroke="#991b1b" stroke-width="1.25" opacity="0.94" />
<text class="label" x="16" y="1902">M-SDH-DES-900 設計ドメイン完了</text>
<line class="row-grid" x1="0" y1="1910" x2="924" y2="1910" />
<polygon points="786,1893 793,1900 786,1907 779,1900" fill="#b45309" />
<rect x="0" y="1908" width="924" height="30" fill="#f1f5f9" />
<text class="section" x="16" y="1926">governance</text>
<line class="grid" x1="0" y1="1934" x2="924" y2="1934" />
<text class="label" x="16" y="1964">T-SDH-GOV-010 プロジェクトドキュメントルールの起草・レビュー</text>
<line class="row-grid" x1="0" y1="1972" x2="924" y2="1972" />
<rect x="380" y="1950" width="56" height="12" rx="4" fill="#2563eb" stroke="#334155" stroke-width="0.75" opacity="0.94" />
<text class="label" x="16" y="1988">T-SDH-GOV-040 共有メタルールブックガバナンスセットの整合</text>
<line class="row-grid" x1="0" y1="1996" x2="924" y2="1996" />
<rect x="380" y="1974" width="42" height="12" rx="4" fill="#d1d5db" stroke="#9ca3af" stroke-width="0.75" opacity="0.94" />
<text class="label" x="16" y="2012">T-SDH-GOV-011-INS プロジェクトドキュメントの起草・レビュー instruction.md の起草・レビュー</text>
<line class="row-grid" x1="0" y1="2020" x2="924" y2="2020" />
<rect x="436" y="1998" width="14" height="12" rx="4" fill="#d1d5db" stroke="#9ca3af" stroke-width="0.75" opacity="0.94" />
<text class="label" x="16" y="2036">T-SDH-GOV-020 移行ルールの起草・レビュー</text>
<line class="row-grid" x1="0" y1="2044" x2="924" y2="2044" />
<rect x="436" y="2022" width="56" height="12" rx="4" fill="#d1d5db" stroke="#9ca3af" stroke-width="0.75" opacity="0.94" />
<rect x="492" y="2022" width="14" height="12" rx="4" fill="#d1d5db" stroke="#9ca3af" stroke-width="0.75" opacity="0.94" />
<text class="label" x="16" y="2060">T-SDH-GOV-030 運用ルールの起草・レビュー</text>
<line class="row-grid" x1="0" y1="2068" x2="924" y2="2068" />
<rect x="436" y="2046" width="42" height="12" rx="4" fill="#d1d5db" stroke="#9ca3af" stroke-width="0.75" opacity="0.94" />
<text class="label" x="16" y="2084">T-SDH-GOV-011-SMP プロジェクトドキュメントの起草・レビュー sample.md の起草・レビュー</text>
<line class="row-grid" x1="0" y1="2092" x2="924" y2="2092" />
<rect x="450" y="2070" width="14" height="12" rx="4" fill="#d1d5db" stroke="#9ca3af" stroke-width="0.75" opacity="0.94" />
<text class="label" x="16" y="2108">T-SDH-GOV-031-INS 運用の起草・レビュー instruction.md の起草・レビュー</text>
<line class="row-grid" x1="0" y1="2116" x2="924" y2="2116" />
<rect x="478" y="2094" width="14" height="12" rx="4" fill="#d1d5db" stroke="#9ca3af" stroke-width="0.75" opacity="0.94" />
<text class="label" x="16" y="2132">T-SDH-GOV-031-SMP 運用の起草・レビュー sample.md の起草・レビュー</text>
<line class="row-grid" x1="0" y1="2140" x2="924" y2="2140" />
<rect x="492" y="2118" width="14" height="12" rx="4" fill="#d1d5db" stroke="#9ca3af" stroke-width="0.75" opacity="0.94" />
<text class="label" x="16" y="2156">T-SDH-GOV-021-INS 移行の起草・レビュー instruction.md の起草・レビュー</text>
<line class="row-grid" x1="0" y1="2164" x2="924" y2="2164" />
<rect x="506" y="2142" width="28" height="12" rx="4" fill="#d1d5db" stroke="#9ca3af" stroke-width="0.75" opacity="0.94" />
<text class="label" x="16" y="2180">T-SDH-GOV-021-SMP 移行の起草・レビュー sample.md の起草・レビュー</text>
<line class="row-grid" x1="0" y1="2188" x2="924" y2="2188" />
<rect x="534" y="2166" width="14" height="12" rx="4" fill="#d1d5db" stroke="#9ca3af" stroke-width="0.75" opacity="0.94" />
<text class="label" x="16" y="2204">M-SDH-GOV-900 ガバナンスドメイン完了</text>
<line class="row-grid" x1="0" y1="2212" x2="924" y2="2212" />
<polygon points="548,2195 555,2202 548,2209 541,2202" fill="#b45309" />
<rect x="0" y="2210" width="924" height="30" fill="#f1f5f9" />
<text class="section" x="16" y="2228">nfr</text>
<line class="grid" x1="0" y1="2236" x2="924" y2="2236" />
<text class="label" x="16" y="2266">T-SDH-NFR-010 NFR インデックスルールの起草・レビュー</text>
<line class="row-grid" x1="0" y1="2274" x2="924" y2="2274" />
<rect x="380" y="2252" width="28" height="12" rx="4" fill="#d1d5db" stroke="#9ca3af" stroke-width="0.75" opacity="0.94" />
<text class="label" x="16" y="2290">T-SDH-NFR-011-INS NFR インデックスの起草・レビュー instruction.md の起草・レビュー</text>
<line class="row-grid" x1="0" y1="2298" x2="924" y2="2298" />
<rect x="408" y="2276" width="14" height="12" rx="4" fill="#d1d5db" stroke="#9ca3af" stroke-width="0.75" opacity="0.94" />
<text class="label" x="16" y="2314">T-SDH-NFR-020 可用性要件ルールの起草・レビュー</text>
<line class="row-grid" x1="0" y1="2322" x2="924" y2="2322" />
<rect x="408" y="2300" width="28" height="12" rx="4" fill="#d1d5db" stroke="#9ca3af" stroke-width="0.75" opacity="0.94" />
<text class="label" x="16" y="2338">T-SDH-NFR-030 完全性要件ルールの起草・レビュー</text>
<line class="row-grid" x1="0" y1="2346" x2="924" y2="2346" />
<rect x="408" y="2324" width="28" height="12" rx="4" fill="#d1d5db" stroke="#9ca3af" stroke-width="0.75" opacity="0.94" />
<text class="label" x="16" y="2362">T-SDH-NFR-040 保守性要件ルールの起草・レビュー</text>
<line class="row-grid" x1="0" y1="2370" x2="924" y2="2370" />
<rect x="408" y="2348" width="28" height="12" rx="4" fill="#d1d5db" stroke="#9ca3af" stroke-width="0.75" opacity="0.94" />
<text class="label" x="16" y="2386">T-SDH-NFR-050 運用性要件ルールの起草・レビュー</text>
<line class="row-grid" x1="0" y1="2394" x2="924" y2="2394" />
<rect x="408" y="2372" width="28" height="12" rx="4" fill="#d1d5db" stroke="#9ca3af" stroke-width="0.75" opacity="0.94" />
<text class="label" x="16" y="2410">T-SDH-NFR-060 性能要件ルールの起草・レビュー</text>
<line class="row-grid" x1="0" y1="2418" x2="924" y2="2418" />
<rect x="408" y="2396" width="28" height="12" rx="4" fill="#d1d5db" stroke="#9ca3af" stroke-width="0.75" opacity="0.94" />
<text class="label" x="16" y="2434">T-SDH-NFR-090 ユーザビリティ要件ルールの起草・レビュー</text>
<line class="row-grid" x1="0" y1="2442" x2="924" y2="2442" />
<rect x="408" y="2420" width="28" height="12" rx="4" fill="#d1d5db" stroke="#9ca3af" stroke-width="0.75" opacity="0.94" />
<text class="label" x="16" y="2458">T-SDH-NFR-011-SMP NFR インデックスの起草・レビュー sample.md の起草・レビュー</text>
<line class="row-grid" x1="0" y1="2466" x2="924" y2="2466" />
<rect x="422" y="2444" width="14" height="12" rx="4" fill="#d1d5db" stroke="#9ca3af" stroke-width="0.75" opacity="0.94" />
<text class="label" x="16" y="2482">T-SDH-NFR-021-INS 可用性要件の起草・レビュー instruction.md の起草・レビュー</text>
<line class="row-grid" x1="0" y1="2490" x2="924" y2="2490" />
<rect x="436" y="2468" width="14" height="12" rx="4" fill="#d1d5db" stroke="#9ca3af" stroke-width="0.75" opacity="0.94" />
<text class="label" x="16" y="2506">T-SDH-NFR-031-INS 完全性要件の起草・レビュー instruction.md の起草・レビュー</text>
<line class="row-grid" x1="0" y1="2514" x2="924" y2="2514" />
<rect x="436" y="2492" width="14" height="12" rx="4" fill="#d1d5db" stroke="#9ca3af" stroke-width="0.75" opacity="0.94" />
<text class="label" x="16" y="2530">T-SDH-NFR-041-INS 保守性要件の起草・レビュー instruction.md の起草・レビュー</text>
<line class="row-grid" x1="0" y1="2538" x2="924" y2="2538" />
<rect x="436" y="2516" width="14" height="12" rx="4" fill="#d1d5db" stroke="#9ca3af" stroke-width="0.75" opacity="0.94" />
<text class="label" x="16" y="2554">T-SDH-NFR-051-INS 運用性要件の起草・レビュー instruction.md の起草・レビュー</text>
<line class="row-grid" x1="0" y1="2562" x2="924" y2="2562" />
<rect x="436" y="2540" width="14" height="12" rx="4" fill="#d1d5db" stroke="#9ca3af" stroke-width="0.75" opacity="0.94" />
<text class="label" x="16" y="2578">T-SDH-NFR-061-INS 性能要件の起草・レビュー instruction.md の起草・レビュー</text>
<line class="row-grid" x1="0" y1="2586" x2="924" y2="2586" />
<rect x="436" y="2564" width="14" height="12" rx="4" fill="#d1d5db" stroke="#9ca3af" stroke-width="0.75" opacity="0.94" />
<text class="label" x="16" y="2602">T-SDH-NFR-070 信頼性要件ルールの起草・レビュー</text>
<line class="row-grid" x1="0" y1="2610" x2="924" y2="2610" />
<rect x="436" y="2588" width="28" height="12" rx="4" fill="#d1d5db" stroke="#9ca3af" stroke-width="0.75" opacity="0.94" />
<text class="label" x="16" y="2626">T-SDH-NFR-080 セキュリティ・安全性要件ルールの起草・レビュー</text>
<line class="row-grid" x1="0" y1="2634" x2="924" y2="2634" />
<rect x="436" y="2612" width="28" height="12" rx="4" fill="#d1d5db" stroke="#9ca3af" stroke-width="0.75" opacity="0.94" />
<text class="label" x="16" y="2650">T-SDH-NFR-091-INS ユーザビリティ要件の起草・レビュー instruction.md の起草・レビュー</text>
<line class="row-grid" x1="0" y1="2658" x2="924" y2="2658" />
<rect x="436" y="2636" width="14" height="12" rx="4" fill="#d1d5db" stroke="#9ca3af" stroke-width="0.75" opacity="0.94" />
<text class="label" x="16" y="2674">T-SDH-NFR-021-SMP 可用性要件の起草・レビュー sample.md の起草・レビュー</text>
<line class="row-grid" x1="0" y1="2682" x2="924" y2="2682" />
<rect x="450" y="2660" width="14" height="12" rx="4" fill="#d1d5db" stroke="#9ca3af" stroke-width="0.75" opacity="0.94" />
<text class="label" x="16" y="2698">T-SDH-NFR-031-SMP 完全性要件の起草・レビュー sample.md の起草・レビュー</text>
<line class="row-grid" x1="0" y1="2706" x2="924" y2="2706" />
<rect x="450" y="2684" width="14" height="12" rx="4" fill="#d1d5db" stroke="#9ca3af" stroke-width="0.75" opacity="0.94" />
<text class="label" x="16" y="2722">T-SDH-NFR-041-SMP 保守性要件の起草・レビュー sample.md の起草・レビュー</text>
<line class="row-grid" x1="0" y1="2730" x2="924" y2="2730" />
<rect x="450" y="2708" width="14" height="12" rx="4" fill="#d1d5db" stroke="#9ca3af" stroke-width="0.75" opacity="0.94" />
<text class="label" x="16" y="2746">T-SDH-NFR-051-SMP 運用性要件の起草・レビュー sample.md の起草・レビュー</text>
<line class="row-grid" x1="0" y1="2754" x2="924" y2="2754" />
<rect x="450" y="2732" width="14" height="12" rx="4" fill="#d1d5db" stroke="#9ca3af" stroke-width="0.75" opacity="0.94" />
<text class="label" x="16" y="2770">T-SDH-NFR-061-SMP 性能要件の起草・レビュー sample.md の起草・レビュー</text>
<line class="row-grid" x1="0" y1="2778" x2="924" y2="2778" />
<rect x="450" y="2756" width="14" height="12" rx="4" fill="#d1d5db" stroke="#9ca3af" stroke-width="0.75" opacity="0.94" />
<text class="label" x="16" y="2794">T-SDH-NFR-091-SMP ユーザビリティ要件の起草・レビュー sample.md の起草・レビュー</text>
<line class="row-grid" x1="0" y1="2802" x2="924" y2="2802" />
<rect x="450" y="2780" width="14" height="12" rx="4" fill="#d1d5db" stroke="#9ca3af" stroke-width="0.75" opacity="0.94" />
<text class="label" x="16" y="2818">T-SDH-NFR-071-INS 信頼性要件の起草・レビュー instruction.md の起草・レビュー</text>
<line class="row-grid" x1="0" y1="2826" x2="924" y2="2826" />
<rect x="464" y="2804" width="14" height="12" rx="4" fill="#d1d5db" stroke="#9ca3af" stroke-width="0.75" opacity="0.94" />
<text class="label" x="16" y="2842">T-SDH-NFR-081-INS セキュリティ・安全性要件の起草・レビュー instruction.md の起草・レビュー</text>
<line class="row-grid" x1="0" y1="2850" x2="924" y2="2850" />
<rect x="464" y="2828" width="14" height="12" rx="4" fill="#d1d5db" stroke="#9ca3af" stroke-width="0.75" opacity="0.94" />
<text class="label" x="16" y="2866">T-SDH-NFR-071-SMP 信頼性要件の起草・レビュー sample.md の起草・レビュー</text>
<line class="row-grid" x1="0" y1="2874" x2="924" y2="2874" />
<rect x="478" y="2852" width="14" height="12" rx="4" fill="#d1d5db" stroke="#9ca3af" stroke-width="0.75" opacity="0.94" />
<text class="label" x="16" y="2890">T-SDH-NFR-081-SMP セキュリティ・安全性要件の起草・レビュー sample.md の起草・レビュー</text>
<line class="row-grid" x1="0" y1="2898" x2="924" y2="2898" />
<rect x="478" y="2876" width="14" height="12" rx="4" fill="#d1d5db" stroke="#9ca3af" stroke-width="0.75" opacity="0.94" />
<text class="label" x="16" y="2914">M-SDH-NFR-900 非機能要件ドメイン完了</text>
<line class="row-grid" x1="0" y1="2922" x2="924" y2="2922" />
<polygon points="492,2905 499,2912 492,2919 485,2912" fill="#b45309" />
<rect x="0" y="2920" width="924" height="30" fill="#f1f5f9" />
<text class="section" x="16" y="2938">quality</text>
<line class="grid" x1="0" y1="2946" x2="924" y2="2946" />
<text class="label" x="16" y="2976">T-SDH-QLT-010 システム受入条件ルールの起草・レビュー</text>
<line class="row-grid" x1="0" y1="2984" x2="924" y2="2984" />
<rect x="380" y="2962" width="28" height="12" rx="4" fill="#d1d5db" stroke="#9ca3af" stroke-width="0.75" opacity="0.94" />
<text class="label" x="16" y="3000">T-SDH-QLT-020 テスト戦略・計画ルールの起草・レビュー</text>
<line class="row-grid" x1="0" y1="3008" x2="924" y2="3008" />
<rect x="380" y="2986" width="28" height="12" rx="4" fill="#d1d5db" stroke="#9ca3af" stroke-width="0.75" opacity="0.94" />
<text class="label" x="16" y="3024">T-SDH-QLT-011-INS システム受入条件の起草・レビュー instruction.md の起草・レビュー</text>
<line class="row-grid" x1="0" y1="3032" x2="924" y2="3032" />
<rect x="408" y="3010" width="14" height="12" rx="4" fill="#d1d5db" stroke="#9ca3af" stroke-width="0.75" opacity="0.94" />
<text class="label" x="16" y="3048">T-SDH-QLT-021-INS テスト戦略・計画の起草・レビュー instruction.md の起草・レビュー</text>
<line class="row-grid" x1="0" y1="3056" x2="924" y2="3056" />
<rect x="408" y="3034" width="14" height="12" rx="4" fill="#d1d5db" stroke="#9ca3af" stroke-width="0.75" opacity="0.94" />
<text class="label" x="16" y="3072">T-SDH-QLT-011-SMP システム受入条件の起草・レビュー sample.md の起草・レビュー</text>
<line class="row-grid" x1="0" y1="3080" x2="924" y2="3080" />
<rect x="422" y="3058" width="14" height="12" rx="4" fill="#d1d5db" stroke="#9ca3af" stroke-width="0.75" opacity="0.94" />
<text class="label" x="16" y="3096">T-SDH-QLT-021-SMP テスト戦略・計画の起草・レビュー sample.md の起草・レビュー</text>
<line class="row-grid" x1="0" y1="3104" x2="924" y2="3104" />
<rect x="422" y="3082" width="14" height="12" rx="4" fill="#d1d5db" stroke="#9ca3af" stroke-width="0.75" opacity="0.94" />
<text class="label" x="16" y="3120">T-SDH-QLT-030 単体テストドキュメントルールの起草・レビュー</text>
<line class="row-grid" x1="0" y1="3128" x2="924" y2="3128" />
<rect x="436" y="3106" width="42" height="12" rx="4" fill="#d1d5db" stroke="#9ca3af" stroke-width="0.75" opacity="0.94" />
<text class="label" x="16" y="3144">T-SDH-QLT-040 結合テストドキュメントルールの起草・レビュー</text>
<line class="row-grid" x1="0" y1="3152" x2="924" y2="3152" />
<rect x="436" y="3130" width="42" height="12" rx="4" fill="#d1d5db" stroke="#9ca3af" stroke-width="0.75" opacity="0.94" />
<text class="label" x="16" y="3168">T-SDH-QLT-050 外部結合テストルールの起草・レビュー</text>
<line class="row-grid" x1="0" y1="3176" x2="924" y2="3176" />
<rect x="436" y="3154" width="56" height="12" rx="4" fill="#d1d5db" stroke="#9ca3af" stroke-width="0.75" opacity="0.94" />
<text class="label" x="16" y="3192">T-SDH-QLT-060 システムテストドキュメントルールの起草・レビュー</text>
<line class="row-grid" x1="0" y1="3200" x2="924" y2="3200" />
<rect x="436" y="3178" width="42" height="12" rx="4" fill="#d1d5db" stroke="#9ca3af" stroke-width="0.75" opacity="0.94" />
<text class="label" x="16" y="3216">T-SDH-QLT-070 受入テストドキュメントルールの起草・レビュー</text>
<line class="row-grid" x1="0" y1="3224" x2="924" y2="3224" />
<rect x="436" y="3202" width="56" height="12" rx="4" fill="#d1d5db" stroke="#9ca3af" stroke-width="0.75" opacity="0.94" />
<text class="label" x="16" y="3240">T-SDH-QLT-031-INS 単体テストドキュメントの起草・レビュー instruction.md の起草・レビュー</text>
<line class="row-grid" x1="0" y1="3248" x2="924" y2="3248" />
<rect x="478" y="3226" width="14" height="12" rx="4" fill="#d1d5db" stroke="#9ca3af" stroke-width="0.75" opacity="0.94" />
<text class="label" x="16" y="3264">T-SDH-QLT-041-INS 結合テストドキュメントの起草・レビュー instruction.md の起草・レビュー</text>
<line class="row-grid" x1="0" y1="3272" x2="924" y2="3272" />
<rect x="478" y="3250" width="14" height="12" rx="4" fill="#d1d5db" stroke="#9ca3af" stroke-width="0.75" opacity="0.94" />
<text class="label" x="16" y="3288">T-SDH-QLT-061-INS システムテストドキュメントの起草・レビュー instruction.md の起草・レビュー</text>
<line class="row-grid" x1="0" y1="3296" x2="924" y2="3296" />
<rect x="478" y="3274" width="14" height="12" rx="4" fill="#d1d5db" stroke="#9ca3af" stroke-width="0.75" opacity="0.94" />
<text class="label" x="16" y="3312">T-SDH-QLT-031-SMP 単体テストドキュメントの起草・レビュー sample.md の起草・レビュー</text>
<line class="row-grid" x1="0" y1="3320" x2="924" y2="3320" />
<rect x="492" y="3298" width="14" height="12" rx="4" fill="#d1d5db" stroke="#9ca3af" stroke-width="0.75" opacity="0.94" />
<text class="label" x="16" y="3336">T-SDH-QLT-041-SMP 結合テストドキュメントの起草・レビュー sample.md の起草・レビュー</text>
<line class="row-grid" x1="0" y1="3344" x2="924" y2="3344" />
<rect x="492" y="3322" width="14" height="12" rx="4" fill="#d1d5db" stroke="#9ca3af" stroke-width="0.75" opacity="0.94" />
<text class="label" x="16" y="3360">T-SDH-QLT-051-INS 外部結合テストの起草・レビュー instruction.md の起草・レビュー</text>
<line class="row-grid" x1="0" y1="3368" x2="924" y2="3368" />
<rect x="492" y="3346" width="14" height="12" rx="4" fill="#d1d5db" stroke="#9ca3af" stroke-width="0.75" opacity="0.94" />
<text class="label" x="16" y="3384">T-SDH-QLT-061-SMP システムテストドキュメントの起草・レビュー sample.md の起草・レビュー</text>
<line class="row-grid" x1="0" y1="3392" x2="924" y2="3392" />
<rect x="492" y="3370" width="14" height="12" rx="4" fill="#d1d5db" stroke="#9ca3af" stroke-width="0.75" opacity="0.94" />
<text class="label" x="16" y="3408">T-SDH-QLT-071-INS 受入テストドキュメントの起草・レビュー instruction.md の起草・レビュー</text>
<line class="row-grid" x1="0" y1="3416" x2="924" y2="3416" />
<rect x="492" y="3394" width="14" height="12" rx="4" fill="#d1d5db" stroke="#9ca3af" stroke-width="0.75" opacity="0.94" />
<text class="label" x="16" y="3432">T-SDH-QLT-051-SMP 外部結合テストの起草・レビュー sample.md の起草・レビュー</text>
<line class="row-grid" x1="0" y1="3440" x2="924" y2="3440" />
<rect x="506" y="3418" width="14" height="12" rx="4" fill="#d1d5db" stroke="#9ca3af" stroke-width="0.75" opacity="0.94" />
<text class="label" x="16" y="3456">T-SDH-QLT-071-SMP 受入テストドキュメントの起草・レビュー sample.md の起草・レビュー</text>
<line class="row-grid" x1="0" y1="3464" x2="924" y2="3464" />
<rect x="506" y="3442" width="14" height="12" rx="4" fill="#d1d5db" stroke="#9ca3af" stroke-width="0.75" opacity="0.94" />
<text class="label" x="16" y="3480">M-SDH-QLT-900 品質ドメイン完了</text>
<line class="row-grid" x1="0" y1="3488" x2="924" y2="3488" />
<polygon points="520,3471 527,3478 520,3485 513,3478" fill="#b45309" />
</svg>