<svg xmlns="http://www.w3.org/2000/svg" width="1428" height="2576" viewBox="0 0 1428 2576" role="img" aria-label="プロジェクトタイムライン">
<style>
    text { font-family: ui-sans-serif, system-ui, -apple-system, BlinkMacSystemFont, 'Segoe UI', sans-serif; fill: #1f2937; }
    .title { font-size: 18px; font-weight: 700; fill: #0f172a; }
    .caption { font-size: 11px; fill: #64748b; }
    .section { font-size: 13px; font-weight: 700; fill: #0f172a; }
    .label { font-size: 12px; font-weight: 500; }
    .axis { font-size: 11px; fill: #475569; }
    .grid { stroke: #d7dee7; stroke-width: 1; }
    .row-grid { stroke: #edf2f7; stroke-width: 1; }
    .shade { fill: #f8fafc; }
    .holiday { fill: #eff6ff; }
    .legend-label { font-size: 11px; fill: #475569; }
  </style>
<rect x="0" y="0" width="1428" height="2576" fill="#fffdf8" />
<rect x="0" y="0" width="380" height="2576" fill="#fffaf0" />
<rect x="380" y="0" width="1048" height="2576" fill="#ffffff" />
<text class="title" x="16" y="28">プロジェクトタイムライン</text>
<text class="caption" x="16" y="48">1 タスク 1 行で表示します。1 日の長さは 8 時間で、休日と週末は空白のままとし、次の稼働日に作業を再開します。</text>
<rect x="0" y="72" width="1428" height="28" fill="#fff7ed" />
<rect x="16" y="64" width="14" height="14" rx="3" fill="#d1d5db" />
<text class="legend-label" x="36" y="78">todo</text>
<rect x="92" y="64" width="14" height="14" rx="3" fill="#2563eb" />
<text class="legend-label" x="112" y="78">doing</text>
<rect x="168" y="64" width="14" height="14" rx="3" fill="#16a34a" />
<text class="legend-label" x="188" y="78">done</text>
<rect x="244" y="64" width="14" height="14" rx="3" fill="#f59e0b" />
<text class="legend-label" x="264" y="78">blocked</text>
<rect x="320" y="64" width="14" height="14" rx="3" fill="#dc2626" />
<text class="legend-label" x="340" y="78">critical</text>
<rect x="396" y="64" width="14" height="14" fill="#eff6ff" />
<text class="legend-label" x="416" y="78">holiday</text>
<rect x="486" y="64" width="14" height="14" fill="#f8fafc" stroke="#d7dee7" />
<text class="legend-label" x="506" y="78">weekend</text>
<line class="grid" x1="380" y1="88" x2="380" y2="2544" />
<text class="axis" x="386" y="90">03/16</text>
<line class="grid" x1="436" y1="88" x2="436" y2="2544" />
<text class="axis" x="442" y="90">03/17</text>
<line class="grid" x1="492" y1="88" x2="492" y2="2544" />
<text class="axis" x="498" y="90">03/18</text>
<line class="grid" x1="548" y1="88" x2="548" y2="2544" />
<text class="axis" x="554" y="90">03/19</text>
<rect class="holiday" x="604" y="88" width="56" height="2468" />
<line class="grid" x1="604" y1="88" x2="604" y2="2544" />
<text class="axis" x="610" y="90">03/20</text>
<rect class="shade" x="660" y="88" width="56" height="2468" />
<line class="grid" x1="660" y1="88" x2="660" y2="2544" />
<text class="axis" x="666" y="90">03/21</text>
<rect class="shade" x="716" y="88" width="56" height="2468" />
<line class="grid" x1="716" y1="88" x2="716" y2="2544" />
<text class="axis" x="722" y="90">03/22</text>
<line class="grid" x1="772" y1="88" x2="772" y2="2544" />
<text class="axis" x="778" y="90">03/23</text>
<line class="grid" x1="828" y1="88" x2="828" y2="2544" />
<text class="axis" x="834" y="90">03/24</text>
<line class="grid" x1="884" y1="88" x2="884" y2="2544" />
<text class="axis" x="890" y="90">03/25</text>
<line class="grid" x1="940" y1="88" x2="940" y2="2544" />
<text class="axis" x="946" y="90">03/26</text>
<line class="grid" x1="996" y1="88" x2="996" y2="2544" />
<text class="axis" x="1002" y="90">03/27</text>
<rect class="shade" x="1052" y="88" width="56" height="2468" />
<line class="grid" x1="1052" y1="88" x2="1052" y2="2544" />
<text class="axis" x="1058" y="90">03/28</text>
<rect class="shade" x="1108" y="88" width="56" height="2468" />
<line class="grid" x1="1108" y1="88" x2="1108" y2="2544" />
<text class="axis" x="1114" y="90">03/29</text>
<line class="grid" x1="1164" y1="88" x2="1164" y2="2544" />
<text class="axis" x="1170" y="90">03/30</text>
<line class="grid" x1="1220" y1="88" x2="1220" y2="2544" />
<text class="axis" x="1226" y="90">03/31</text>
<line class="grid" x1="1276" y1="88" x2="1276" y2="2544" />
<text class="axis" x="1282" y="90">04/01</text>
<line class="grid" x1="1332" y1="88" x2="1332" y2="2544" />
<text class="axis" x="1338" y="90">04/02</text>
<line class="grid" x1="1388" y1="88" x2="1388" y2="2544" />
<rect x="0" y="90" width="1428" height="30" fill="#f1f5f9" />
<text class="section" x="16" y="108">milestones</text>
<line class="grid" x1="0" y1="116" x2="1428" y2="116" />
<text class="label" x="16" y="146">M-SDH-100 スケジュールキックオフ</text>
<line class="row-grid" x1="0" y1="154" x2="1428" y2="154" />
<polygon points="380,137 387,144 380,151 373,144" fill="#b45309" />
<text class="label" x="16" y="170">M-SDH-200 ガバナンスベースライン確定</text>
<line class="row-grid" x1="0" y1="178" x2="1428" y2="178" />
<polygon points="562,161 569,168 562,175 555,168" fill="#b45309" />
<text class="label" x="16" y="194">M-SDH-300 業務・非機能要件ベースライン確定</text>
<line class="row-grid" x1="0" y1="202" x2="1428" y2="202" />
<polygon points="940,185 947,192 940,199 933,192" fill="#b45309" />
<text class="label" x="16" y="218">M-SDH-400 品質ベースライン確定</text>
<line class="row-grid" x1="0" y1="226" x2="1428" y2="226" />
<polygon points="1192,209 1199,216 1192,223 1185,216" fill="#b45309" />
<text class="label" x="16" y="242">M-SDH-999 prj-0001 スケジュールスコープ完了</text>
<line class="row-grid" x1="0" y1="250" x2="1428" y2="250" />
<polygon points="1192,233 1199,240 1192,247 1185,240" fill="#b45309" />
<text class="label" x="16" y="266">M-SDH-350 設計ベースライン確定</text>
<line class="row-grid" x1="0" y1="274" x2="1428" y2="274" />
<polygon points="1304,257 1311,264 1304,271 1297,264" fill="#b45309" />
<rect x="0" y="272" width="1428" height="30" fill="#f1f5f9" />
<text class="section" x="16" y="290">governance</text>
<line class="grid" x1="0" y1="298" x2="1428" y2="298" />
<text class="label" x="16" y="328">T-SDH-GOV-010 プロジェクトドキュメントルールの起草・レビュー</text>
<line class="row-grid" x1="0" y1="336" x2="1428" y2="336" />
<rect x="380" y="314" width="56" height="12" rx="4" fill="#2563eb" stroke="#991b1b" stroke-width="1.25" opacity="0.94" />
<text class="label" x="16" y="352">T-SDH-GOV-040 共有メタルールブックガバナンスセットの整合</text>
<line class="row-grid" x1="0" y1="360" x2="1428" y2="360" />
<rect x="380" y="338" width="42" height="12" rx="4" fill="#d1d5db" stroke="#9ca3af" stroke-width="0.75" opacity="0.94" />
<text class="label" x="16" y="376">T-SDH-GOV-011 プロジェクトドキュメント派生成果物の起草・レビュー</text>
<line class="row-grid" x1="0" y1="384" x2="1428" y2="384" />
<rect x="436" y="362" width="42" height="12" rx="4" fill="#d1d5db" stroke="#9ca3af" stroke-width="0.75" opacity="0.94" />
<text class="label" x="16" y="400">T-SDH-GOV-020 移行ルールの起草・レビュー</text>
<line class="row-grid" x1="0" y1="408" x2="1428" y2="408" />
<rect x="436" y="386" width="56" height="12" rx="4" fill="#dc2626" stroke="#991b1b" stroke-width="1.25" opacity="0.94" />
<rect x="492" y="386" width="14" height="12" rx="4" fill="#dc2626" stroke="#991b1b" stroke-width="1.25" opacity="0.94" />
<text class="label" x="16" y="424">T-SDH-GOV-030 運用ルールの起草・レビュー</text>
<line class="row-grid" x1="0" y1="432" x2="1428" y2="432" />
<rect x="436" y="410" width="42" height="12" rx="4" fill="#d1d5db" stroke="#9ca3af" stroke-width="0.75" opacity="0.94" />
<text class="label" x="16" y="448">T-SDH-GOV-031 運用派生成果物の起草・レビュー</text>
<line class="row-grid" x1="0" y1="456" x2="1428" y2="456" />
<rect x="478" y="434" width="14" height="12" rx="4" fill="#d1d5db" stroke="#9ca3af" stroke-width="0.75" opacity="0.94" />
<rect x="492" y="434" width="14" height="12" rx="4" fill="#d1d5db" stroke="#9ca3af" stroke-width="0.75" opacity="0.94" />
<text class="label" x="16" y="472">T-SDH-GOV-021 移行派生成果物の起草・レビュー</text>
<line class="row-grid" x1="0" y1="480" x2="1428" y2="480" />
<rect x="506" y="458" width="42" height="12" rx="4" fill="#dc2626" stroke="#991b1b" stroke-width="1.25" opacity="0.94" />
<rect x="548" y="458" width="14" height="12" rx="4" fill="#dc2626" stroke="#991b1b" stroke-width="1.25" opacity="0.94" />
<text class="label" x="16" y="496">M-SDH-GOV-900 ガバナンスドメイン完了</text>
<line class="row-grid" x1="0" y1="504" x2="1428" y2="504" />
<polygon points="562,487 569,494 562,501 555,494" fill="#b45309" />
<rect x="0" y="502" width="1428" height="30" fill="#f1f5f9" />
<text class="section" x="16" y="520">business</text>
<line class="grid" x1="0" y1="528" x2="1428" y2="528" />
<text class="label" x="16" y="558">T-SDH-BIZ-010 業務プロセス仕様ルールの起草・レビュー</text>
<line class="row-grid" x1="0" y1="566" x2="1428" y2="566" />
<rect x="562" y="544" width="28" height="12" rx="4" fill="#dc2626" stroke="#991b1b" stroke-width="1.25" opacity="0.94" />
<text class="label" x="16" y="582">T-SDH-BIZ-030 業務データディクショナリルールの起草・レビュー</text>
<line class="row-grid" x1="0" y1="590" x2="1428" y2="590" />
<rect x="562" y="568" width="28" height="12" rx="4" fill="#d1d5db" stroke="#9ca3af" stroke-width="0.75" opacity="0.94" />
<text class="label" x="16" y="606">T-SDH-BIZ-060 用語集ルールの起草・レビュー</text>
<line class="row-grid" x1="0" y1="614" x2="1428" y2="614" />
<rect x="562" y="592" width="28" height="12" rx="4" fill="#d1d5db" stroke="#9ca3af" stroke-width="0.75" opacity="0.94" />
<text class="label" x="16" y="630">T-SDH-BIZ-070 リファレンスデータルールの起草・レビュー</text>
<line class="row-grid" x1="0" y1="638" x2="1428" y2="638" />
<rect x="562" y="616" width="42" height="12" rx="4" fill="#d1d5db" stroke="#9ca3af" stroke-width="0.75" opacity="0.94" />
<rect x="772" y="616" width="14" height="12" rx="4" fill="#d1d5db" stroke="#9ca3af" stroke-width="0.75" opacity="0.94" />
<text class="label" x="16" y="654">T-SDH-BIZ-011 業務プロセス仕様派生成果物の起草・レビュー</text>
<line class="row-grid" x1="0" y1="662" x2="1428" y2="662" />
<rect x="590" y="640" width="14" height="12" rx="4" fill="#d1d5db" stroke="#9ca3af" stroke-width="0.75" opacity="0.94" />
<text class="label" x="16" y="678">T-SDH-BIZ-020 ビジネスルールのルール起草・レビュー</text>
<line class="row-grid" x1="0" y1="686" x2="1428" y2="686" />
<rect x="590" y="664" width="14" height="12" rx="4" fill="#dc2626" stroke="#991b1b" stroke-width="1.25" opacity="0.94" />
<rect x="772" y="664" width="14" height="12" rx="4" fill="#dc2626" stroke="#991b1b" stroke-width="1.25" opacity="0.94" />
<text class="label" x="16" y="702">T-SDH-BIZ-031 業務データディクショナリ派生成果物の起草・レビュー</text>
<line class="row-grid" x1="0" y1="710" x2="1428" y2="710" />
<rect x="590" y="688" width="14" height="12" rx="4" fill="#d1d5db" stroke="#9ca3af" stroke-width="0.75" opacity="0.94" />
<text class="label" x="16" y="726">T-SDH-BIZ-040 帳票仕様ルールの起草・レビュー</text>
<line class="row-grid" x1="0" y1="734" x2="1428" y2="734" />
<rect x="590" y="712" width="14" height="12" rx="4" fill="#d1d5db" stroke="#9ca3af" stroke-width="0.75" opacity="0.94" />
<rect x="772" y="712" width="14" height="12" rx="4" fill="#d1d5db" stroke="#9ca3af" stroke-width="0.75" opacity="0.94" />
<text class="label" x="16" y="750">T-SDH-BIZ-050 画面仕様ルールの起草・レビュー</text>
<line class="row-grid" x1="0" y1="758" x2="1428" y2="758" />
<rect x="590" y="736" width="14" height="12" rx="4" fill="#d1d5db" stroke="#9ca3af" stroke-width="0.75" opacity="0.94" />
<rect x="772" y="736" width="14" height="12" rx="4" fill="#d1d5db" stroke="#9ca3af" stroke-width="0.75" opacity="0.94" />
<text class="label" x="16" y="774">T-SDH-BIZ-061 用語集派生成果物の起草・レビュー</text>
<line class="row-grid" x1="0" y1="782" x2="1428" y2="782" />
<rect x="590" y="760" width="14" height="12" rx="4" fill="#d1d5db" stroke="#9ca3af" stroke-width="0.75" opacity="0.94" />
<text class="label" x="16" y="798">T-SDH-BIZ-100 概念データストアルールの起草・レビュー</text>
<line class="row-grid" x1="0" y1="806" x2="1428" y2="806" />
<rect x="590" y="784" width="14" height="12" rx="4" fill="#d1d5db" stroke="#9ca3af" stroke-width="0.75" opacity="0.94" />
<rect x="772" y="784" width="14" height="12" rx="4" fill="#d1d5db" stroke="#9ca3af" stroke-width="0.75" opacity="0.94" />
<text class="label" x="16" y="822">T-SDH-BIZ-110 概念状態遷移ルールの起草・レビュー</text>
<line class="row-grid" x1="0" y1="830" x2="1428" y2="830" />
<rect x="590" y="808" width="14" height="12" rx="4" fill="#d1d5db" stroke="#9ca3af" stroke-width="0.75" opacity="0.94" />
<rect x="772" y="808" width="28" height="12" rx="4" fill="#d1d5db" stroke="#9ca3af" stroke-width="0.75" opacity="0.94" />
<text class="label" x="16" y="846">T-SDH-BIZ-120 概念クラス図ルールの起草・レビュー</text>
<line class="row-grid" x1="0" y1="854" x2="1428" y2="854" />
<rect x="590" y="832" width="14" height="12" rx="4" fill="#d1d5db" stroke="#9ca3af" stroke-width="0.75" opacity="0.94" />
<rect x="772" y="832" width="14" height="12" rx="4" fill="#d1d5db" stroke="#9ca3af" stroke-width="0.75" opacity="0.94" />
<text class="label" x="16" y="870">T-SDH-BIZ-021 ビジネスルール派生成果物の起草・レビュー</text>
<line class="row-grid" x1="0" y1="878" x2="1428" y2="878" />
<rect x="786" y="856" width="14" height="12" rx="4" fill="#d1d5db" stroke="#9ca3af" stroke-width="0.75" opacity="0.94" />
<text class="label" x="16" y="894">T-SDH-BIZ-041 帳票仕様派生成果物の起草・レビュー</text>
<line class="row-grid" x1="0" y1="902" x2="1428" y2="902" />
<rect x="786" y="880" width="14" height="12" rx="4" fill="#d1d5db" stroke="#9ca3af" stroke-width="0.75" opacity="0.94" />
<text class="label" x="16" y="918">T-SDH-BIZ-051 画面仕様派生成果物の起草・レビュー</text>
<line class="row-grid" x1="0" y1="926" x2="1428" y2="926" />
<rect x="786" y="904" width="14" height="12" rx="4" fill="#d1d5db" stroke="#9ca3af" stroke-width="0.75" opacity="0.94" />
<text class="label" x="16" y="942">T-SDH-BIZ-071 リファレンスデータ派生成果物の起草・レビュー</text>
<line class="row-grid" x1="0" y1="950" x2="1428" y2="950" />
<rect x="786" y="928" width="42" height="12" rx="4" fill="#d1d5db" stroke="#9ca3af" stroke-width="0.75" opacity="0.94" />
<text class="label" x="16" y="966">T-SDH-BIZ-080 業務イベント仕様ルールの起草・レビュー</text>
<line class="row-grid" x1="0" y1="974" x2="1428" y2="974" />
<rect x="786" y="952" width="42" height="12" rx="4" fill="#dc2626" stroke="#991b1b" stroke-width="1.25" opacity="0.94" />
<text class="label" x="16" y="990">T-SDH-BIZ-101 概念データストア派生成果物の起草・レビュー</text>
<line class="row-grid" x1="0" y1="998" x2="1428" y2="998" />
<rect x="786" y="976" width="14" height="12" rx="4" fill="#d1d5db" stroke="#9ca3af" stroke-width="0.75" opacity="0.94" />
<text class="label" x="16" y="1014">T-SDH-BIZ-121 概念クラス図派生成果物の起草・レビュー</text>
<line class="row-grid" x1="0" y1="1022" x2="1428" y2="1022" />
<rect x="786" y="1000" width="14" height="12" rx="4" fill="#d1d5db" stroke="#9ca3af" stroke-width="0.75" opacity="0.94" />
<text class="label" x="16" y="1038">T-SDH-BIZ-111 概念状態遷移派生成果物の起草・レビュー</text>
<line class="row-grid" x1="0" y1="1046" x2="1428" y2="1046" />
<rect x="800" y="1024" width="28" height="12" rx="4" fill="#d1d5db" stroke="#9ca3af" stroke-width="0.75" opacity="0.94" />
<text class="label" x="16" y="1062">T-SDH-BIZ-081 業務イベント仕様派生成果物の起草・レビュー</text>
<line class="row-grid" x1="0" y1="1070" x2="1428" y2="1070" />
<rect x="828" y="1048" width="28" height="12" rx="4" fill="#d1d5db" stroke="#9ca3af" stroke-width="0.75" opacity="0.94" />
<text class="label" x="16" y="1086">T-SDH-BIZ-090 概念データフロールールの起草・レビュー</text>
<line class="row-grid" x1="0" y1="1094" x2="1428" y2="1094" />
<rect x="828" y="1072" width="42" height="12" rx="4" fill="#dc2626" stroke="#991b1b" stroke-width="1.25" opacity="0.94" />
<text class="label" x="16" y="1110">T-SDH-BIZ-130 システム機能一覧ルールの起草・レビュー</text>
<line class="row-grid" x1="0" y1="1118" x2="1428" y2="1118" />
<rect x="828" y="1096" width="42" height="12" rx="4" fill="#d1d5db" stroke="#9ca3af" stroke-width="0.75" opacity="0.94" />
<text class="label" x="16" y="1134">T-SDH-BIZ-091 概念データフロー派生成果物の起草・レビュー</text>
<line class="row-grid" x1="0" y1="1142" x2="1428" y2="1142" />
<rect x="870" y="1120" width="14" height="12" rx="4" fill="#dc2626" stroke="#991b1b" stroke-width="1.25" opacity="0.94" />
<rect x="884" y="1120" width="14" height="12" rx="4" fill="#dc2626" stroke="#991b1b" stroke-width="1.25" opacity="0.94" />
<text class="label" x="16" y="1158">T-SDH-BIZ-131 システム機能一覧派生成果物の起草・レビュー</text>
<line class="row-grid" x1="0" y1="1166" x2="1428" y2="1166" />
<rect x="870" y="1144" width="14" height="12" rx="4" fill="#d1d5db" stroke="#9ca3af" stroke-width="0.75" opacity="0.94" />
<rect x="884" y="1144" width="14" height="12" rx="4" fill="#d1d5db" stroke="#9ca3af" stroke-width="0.75" opacity="0.94" />
<text class="label" x="16" y="1182">T-SDH-BIZ-140 業務受入条件ルールの起草・レビュー</text>
<line class="row-grid" x1="0" y1="1190" x2="1428" y2="1190" />
<rect x="898" y="1168" width="28" height="12" rx="4" fill="#dc2626" stroke="#991b1b" stroke-width="1.25" opacity="0.94" />
<text class="label" x="16" y="1206">T-SDH-BIZ-141 業務受入条件派生成果物の起草・レビュー</text>
<line class="row-grid" x1="0" y1="1214" x2="1428" y2="1214" />
<rect x="926" y="1192" width="14" height="12" rx="4" fill="#dc2626" stroke="#991b1b" stroke-width="1.25" opacity="0.94" />
<text class="label" x="16" y="1230">M-SDH-BIZ-900 業務ドメイン完了</text>
<line class="row-grid" x1="0" y1="1238" x2="1428" y2="1238" />
<polygon points="940,1221 947,1228 940,1235 933,1228" fill="#b45309" />
<rect x="0" y="1236" width="1428" height="30" fill="#f1f5f9" />
<text class="section" x="16" y="1254">nfr</text>
<line class="grid" x1="0" y1="1262" x2="1428" y2="1262" />
<text class="label" x="16" y="1292">T-SDH-NFR-010 NFR インデックスルールの起草・レビュー</text>
<line class="row-grid" x1="0" y1="1300" x2="1428" y2="1300" />
<rect x="562" y="1278" width="28" height="12" rx="4" fill="#d1d5db" stroke="#9ca3af" stroke-width="0.75" opacity="0.94" />
<text class="label" x="16" y="1316">T-SDH-NFR-011 NFR インデックス派生成果物の起草・レビュー</text>
<line class="row-grid" x1="0" y1="1324" x2="1428" y2="1324" />
<rect x="590" y="1302" width="14" height="12" rx="4" fill="#d1d5db" stroke="#9ca3af" stroke-width="0.75" opacity="0.94" />
<text class="label" x="16" y="1340">T-SDH-NFR-020 可用性要件ルールの起草・レビュー</text>
<line class="row-grid" x1="0" y1="1348" x2="1428" y2="1348" />
<rect x="590" y="1326" width="14" height="12" rx="4" fill="#d1d5db" stroke="#9ca3af" stroke-width="0.75" opacity="0.94" />
<rect x="772" y="1326" width="14" height="12" rx="4" fill="#d1d5db" stroke="#9ca3af" stroke-width="0.75" opacity="0.94" />
<text class="label" x="16" y="1364">T-SDH-NFR-030 完全性要件ルールの起草・レビュー</text>
<line class="row-grid" x1="0" y1="1372" x2="1428" y2="1372" />
<rect x="590" y="1350" width="14" height="12" rx="4" fill="#d1d5db" stroke="#9ca3af" stroke-width="0.75" opacity="0.94" />
<rect x="772" y="1350" width="14" height="12" rx="4" fill="#d1d5db" stroke="#9ca3af" stroke-width="0.75" opacity="0.94" />
<text class="label" x="16" y="1388">T-SDH-NFR-040 保守性要件ルールの起草・レビュー</text>
<line class="row-grid" x1="0" y1="1396" x2="1428" y2="1396" />
<rect x="590" y="1374" width="14" height="12" rx="4" fill="#d1d5db" stroke="#9ca3af" stroke-width="0.75" opacity="0.94" />
<rect x="772" y="1374" width="14" height="12" rx="4" fill="#d1d5db" stroke="#9ca3af" stroke-width="0.75" opacity="0.94" />
<text class="label" x="16" y="1412">T-SDH-NFR-050 運用性要件ルールの起草・レビュー</text>
<line class="row-grid" x1="0" y1="1420" x2="1428" y2="1420" />
<rect x="590" y="1398" width="14" height="12" rx="4" fill="#d1d5db" stroke="#9ca3af" stroke-width="0.75" opacity="0.94" />
<rect x="772" y="1398" width="14" height="12" rx="4" fill="#d1d5db" stroke="#9ca3af" stroke-width="0.75" opacity="0.94" />
<text class="label" x="16" y="1436">T-SDH-NFR-060 性能要件ルールの起草・レビュー</text>
<line class="row-grid" x1="0" y1="1444" x2="1428" y2="1444" />
<rect x="590" y="1422" width="14" height="12" rx="4" fill="#d1d5db" stroke="#9ca3af" stroke-width="0.75" opacity="0.94" />
<rect x="772" y="1422" width="14" height="12" rx="4" fill="#d1d5db" stroke="#9ca3af" stroke-width="0.75" opacity="0.94" />
<text class="label" x="16" y="1460">T-SDH-NFR-090 ユーザビリティ要件ルールの起草・レビュー</text>
<line class="row-grid" x1="0" y1="1468" x2="1428" y2="1468" />
<rect x="590" y="1446" width="14" height="12" rx="4" fill="#d1d5db" stroke="#9ca3af" stroke-width="0.75" opacity="0.94" />
<rect x="772" y="1446" width="14" height="12" rx="4" fill="#d1d5db" stroke="#9ca3af" stroke-width="0.75" opacity="0.94" />
<text class="label" x="16" y="1484">T-SDH-NFR-021 可用性要件派生成果物の起草・レビュー</text>
<line class="row-grid" x1="0" y1="1492" x2="1428" y2="1492" />
<rect x="786" y="1470" width="14" height="12" rx="4" fill="#d1d5db" stroke="#9ca3af" stroke-width="0.75" opacity="0.94" />
<text class="label" x="16" y="1508">T-SDH-NFR-031 完全性要件派生成果物の起草・レビュー</text>
<line class="row-grid" x1="0" y1="1516" x2="1428" y2="1516" />
<rect x="786" y="1494" width="14" height="12" rx="4" fill="#d1d5db" stroke="#9ca3af" stroke-width="0.75" opacity="0.94" />
<text class="label" x="16" y="1532">T-SDH-NFR-041 保守性要件派生成果物の起草・レビュー</text>
<line class="row-grid" x1="0" y1="1540" x2="1428" y2="1540" />
<rect x="786" y="1518" width="14" height="12" rx="4" fill="#d1d5db" stroke="#9ca3af" stroke-width="0.75" opacity="0.94" />
<text class="label" x="16" y="1556">T-SDH-NFR-051 運用性要件派生成果物の起草・レビュー</text>
<line class="row-grid" x1="0" y1="1564" x2="1428" y2="1564" />
<rect x="786" y="1542" width="14" height="12" rx="4" fill="#d1d5db" stroke="#9ca3af" stroke-width="0.75" opacity="0.94" />
<text class="label" x="16" y="1580">T-SDH-NFR-061 性能要件派生成果物の起草・レビュー</text>
<line class="row-grid" x1="0" y1="1588" x2="1428" y2="1588" />
<rect x="786" y="1566" width="14" height="12" rx="4" fill="#d1d5db" stroke="#9ca3af" stroke-width="0.75" opacity="0.94" />
<text class="label" x="16" y="1604">T-SDH-NFR-070 信頼性要件ルールの起草・レビュー</text>
<line class="row-grid" x1="0" y1="1612" x2="1428" y2="1612" />
<rect x="786" y="1590" width="28" height="12" rx="4" fill="#d1d5db" stroke="#9ca3af" stroke-width="0.75" opacity="0.94" />
<text class="label" x="16" y="1628">T-SDH-NFR-080 セキュリティ・安全性要件ルールの起草・レビュー</text>
<line class="row-grid" x1="0" y1="1636" x2="1428" y2="1636" />
<rect x="786" y="1614" width="28" height="12" rx="4" fill="#d1d5db" stroke="#9ca3af" stroke-width="0.75" opacity="0.94" />
<text class="label" x="16" y="1652">T-SDH-NFR-091 ユーザビリティ要件派生成果物の起草・レビュー</text>
<line class="row-grid" x1="0" y1="1660" x2="1428" y2="1660" />
<rect x="786" y="1638" width="14" height="12" rx="4" fill="#d1d5db" stroke="#9ca3af" stroke-width="0.75" opacity="0.94" />
<text class="label" x="16" y="1676">T-SDH-NFR-071 信頼性要件派生成果物の起草・レビュー</text>
<line class="row-grid" x1="0" y1="1684" x2="1428" y2="1684" />
<rect x="814" y="1662" width="14" height="12" rx="4" fill="#d1d5db" stroke="#9ca3af" stroke-width="0.75" opacity="0.94" />
<text class="label" x="16" y="1700">T-SDH-NFR-081 セキュリティ・安全性要件派生成果物の起草・レビュー</text>
<line class="row-grid" x1="0" y1="1708" x2="1428" y2="1708" />
<rect x="814" y="1686" width="14" height="12" rx="4" fill="#d1d5db" stroke="#9ca3af" stroke-width="0.75" opacity="0.94" />
<text class="label" x="16" y="1724">M-SDH-NFR-900 非機能要件ドメイン完了</text>
<line class="row-grid" x1="0" y1="1732" x2="1428" y2="1732" />
<polygon points="828,1715 835,1722 828,1729 821,1722" fill="#b45309" />
<rect x="0" y="1730" width="1428" height="30" fill="#f1f5f9" />
<text class="section" x="16" y="1748">design</text>
<line class="grid" x1="0" y1="1756" x2="1428" y2="1756" />
<text class="label" x="16" y="1786">T-SDH-DES-010 外部インターフェースルールの起草・レビュー</text>
<line class="row-grid" x1="0" y1="1794" x2="1428" y2="1794" />
<rect x="940" y="1772" width="56" height="12" rx="4" fill="#d1d5db" stroke="#9ca3af" stroke-width="0.75" opacity="0.94" />
<rect x="996" y="1772" width="14" height="12" rx="4" fill="#d1d5db" stroke="#9ca3af" stroke-width="0.75" opacity="0.94" />
<text class="label" x="16" y="1810">T-SDH-DES-020 C4 コンテキスト図ルールの起草・レビュー</text>
<line class="row-grid" x1="0" y1="1818" x2="1428" y2="1818" />
<rect x="940" y="1796" width="42" height="12" rx="4" fill="#dc2626" stroke="#991b1b" stroke-width="1.25" opacity="0.94" />
<text class="label" x="16" y="1834">T-SDH-DES-060 技術スタック定義ルールの起草・レビュー</text>
<line class="row-grid" x1="0" y1="1842" x2="1428" y2="1842" />
<rect x="940" y="1820" width="28" height="12" rx="4" fill="#d1d5db" stroke="#9ca3af" stroke-width="0.75" opacity="0.94" />
<text class="label" x="16" y="1858">T-SDH-DES-061 技術スタック定義派生成果物の起草・レビュー</text>
<line class="row-grid" x1="0" y1="1866" x2="1428" y2="1866" />
<rect x="968" y="1844" width="14" height="12" rx="4" fill="#d1d5db" stroke="#9ca3af" stroke-width="0.75" opacity="0.94" />
<text class="label" x="16" y="1882">T-SDH-DES-021 C4 コンテキスト図派生成果物の起草・レビュー</text>
<line class="row-grid" x1="0" y1="1890" x2="1428" y2="1890" />
<rect x="982" y="1868" width="14" height="12" rx="4" fill="#d1d5db" stroke="#9ca3af" stroke-width="0.75" opacity="0.94" />
<rect x="996" y="1868" width="14" height="12" rx="4" fill="#d1d5db" stroke="#9ca3af" stroke-width="0.75" opacity="0.94" />
<text class="label" x="16" y="1906">T-SDH-DES-030 C4 コンテナ図ルールの起草・レビュー</text>
<line class="row-grid" x1="0" y1="1914" x2="1428" y2="1914" />
<rect x="982" y="1892" width="14" height="12" rx="4" fill="#dc2626" stroke="#991b1b" stroke-width="1.25" opacity="0.94" />
<rect x="996" y="1892" width="28" height="12" rx="4" fill="#dc2626" stroke="#991b1b" stroke-width="1.25" opacity="0.94" />
<text class="label" x="16" y="1930">T-SDH-DES-050 インフラ構成図ルールの起草・レビュー</text>
<line class="row-grid" x1="0" y1="1938" x2="1428" y2="1938" />
<rect x="982" y="1916" width="14" height="12" rx="4" fill="#d1d5db" stroke="#9ca3af" stroke-width="0.75" opacity="0.94" />
<rect x="996" y="1916" width="14" height="12" rx="4" fill="#d1d5db" stroke="#9ca3af" stroke-width="0.75" opacity="0.94" />
<text class="label" x="16" y="1954">T-SDH-DES-011 外部インターフェース派生成果物の起草・レビュー</text>
<line class="row-grid" x1="0" y1="1962" x2="1428" y2="1962" />
<rect x="1010" y="1940" width="42" height="12" rx="4" fill="#d1d5db" stroke="#9ca3af" stroke-width="0.75" opacity="0.94" />
<rect x="1164" y="1940" width="14" height="12" rx="4" fill="#d1d5db" stroke="#9ca3af" stroke-width="0.75" opacity="0.94" />
<text class="label" x="16" y="1978">T-SDH-DES-051 インフラ構成図派生成果物の起草・レビュー</text>
<line class="row-grid" x1="0" y1="1986" x2="1428" y2="1986" />
<rect x="1010" y="1964" width="14" height="12" rx="4" fill="#d1d5db" stroke="#9ca3af" stroke-width="0.75" opacity="0.94" />
<text class="label" x="16" y="2002">T-SDH-DES-031 C4 コンテナ図派生成果物の起草・レビュー</text>
<line class="row-grid" x1="0" y1="2010" x2="1428" y2="2010" />
<rect x="1024" y="1988" width="28" height="12" rx="4" fill="#d1d5db" stroke="#9ca3af" stroke-width="0.75" opacity="0.94" />
<text class="label" x="16" y="2026">T-SDH-DES-040 C4 コンポーネント図ルールの起草・レビュー</text>
<line class="row-grid" x1="0" y1="2034" x2="1428" y2="2034" />
<rect x="1024" y="2012" width="28" height="12" rx="4" fill="#dc2626" stroke="#991b1b" stroke-width="1.25" opacity="0.94" />
<rect x="1164" y="2012" width="14" height="12" rx="4" fill="#dc2626" stroke="#991b1b" stroke-width="1.25" opacity="0.94" />
<text class="label" x="16" y="2050">T-SDH-DES-041 C4 コンポーネント図派生成果物の起草・レビュー</text>
<line class="row-grid" x1="0" y1="2058" x2="1428" y2="2058" />
<rect x="1178" y="2036" width="28" height="12" rx="4" fill="#dc2626" stroke="#991b1b" stroke-width="1.25" opacity="0.94" />
<text class="label" x="16" y="2074">T-SDH-DES-070 システム設計ルールの起草・レビュー</text>
<line class="row-grid" x1="0" y1="2082" x2="1428" y2="2082" />
<rect x="1206" y="2060" width="14" height="12" rx="4" fill="#dc2626" stroke="#991b1b" stroke-width="1.25" opacity="0.94" />
<rect x="1220" y="2060" width="42" height="12" rx="4" fill="#dc2626" stroke="#991b1b" stroke-width="1.25" opacity="0.94" />
<text class="label" x="16" y="2098">T-SDH-DES-071 システム設計派生成果物の起草・レビュー</text>
<line class="row-grid" x1="0" y1="2106" x2="1428" y2="2106" />
<rect x="1262" y="2084" width="14" height="12" rx="4" fill="#dc2626" stroke="#991b1b" stroke-width="1.25" opacity="0.94" />
<rect x="1276" y="2084" width="28" height="12" rx="4" fill="#dc2626" stroke="#991b1b" stroke-width="1.25" opacity="0.94" />
<text class="label" x="16" y="2122">M-SDH-DES-900 設計ドメイン完了</text>
<line class="row-grid" x1="0" y1="2130" x2="1428" y2="2130" />
<polygon points="1304,2113 1311,2120 1304,2127 1297,2120" fill="#b45309" />
<rect x="0" y="2128" width="1428" height="30" fill="#f1f5f9" />
<text class="section" x="16" y="2146">quality</text>
<line class="grid" x1="0" y1="2154" x2="1428" y2="2154" />
<text class="label" x="16" y="2184">T-SDH-QLT-010 システム受入条件ルールの起草・レビュー</text>
<line class="row-grid" x1="0" y1="2192" x2="1428" y2="2192" />
<rect x="940" y="2170" width="28" height="12" rx="4" fill="#d1d5db" stroke="#9ca3af" stroke-width="0.75" opacity="0.94" />
<text class="label" x="16" y="2208">T-SDH-QLT-020 テスト戦略・計画ルールの起草・レビュー</text>
<line class="row-grid" x1="0" y1="2216" x2="1428" y2="2216" />
<rect x="940" y="2194" width="28" height="12" rx="4" fill="#d1d5db" stroke="#9ca3af" stroke-width="0.75" opacity="0.94" />
<text class="label" x="16" y="2232">T-SDH-QLT-011 システム受入条件派生成果物の起草・レビュー</text>
<line class="row-grid" x1="0" y1="2240" x2="1428" y2="2240" />
<rect x="968" y="2218" width="14" height="12" rx="4" fill="#d1d5db" stroke="#9ca3af" stroke-width="0.75" opacity="0.94" />
<text class="label" x="16" y="2256">T-SDH-QLT-021 テスト戦略・計画派生成果物の起草・レビュー</text>
<line class="row-grid" x1="0" y1="2264" x2="1428" y2="2264" />
<rect x="968" y="2242" width="14" height="12" rx="4" fill="#d1d5db" stroke="#9ca3af" stroke-width="0.75" opacity="0.94" />
<text class="label" x="16" y="2280">T-SDH-QLT-030 単体テストドキュメントルールの起草・レビュー</text>
<line class="row-grid" x1="0" y1="2288" x2="1428" y2="2288" />
<rect x="982" y="2266" width="14" height="12" rx="4" fill="#d1d5db" stroke="#9ca3af" stroke-width="0.75" opacity="0.94" />
<rect x="996" y="2266" width="28" height="12" rx="4" fill="#d1d5db" stroke="#9ca3af" stroke-width="0.75" opacity="0.94" />
<text class="label" x="16" y="2304">T-SDH-QLT-040 結合テストドキュメントルールの起草・レビュー</text>
<line class="row-grid" x1="0" y1="2312" x2="1428" y2="2312" />
<rect x="982" y="2290" width="14" height="12" rx="4" fill="#d1d5db" stroke="#9ca3af" stroke-width="0.75" opacity="0.94" />
<rect x="996" y="2290" width="28" height="12" rx="4" fill="#d1d5db" stroke="#9ca3af" stroke-width="0.75" opacity="0.94" />
<text class="label" x="16" y="2328">T-SDH-QLT-050 外部結合テストルールの起草・レビュー</text>
<line class="row-grid" x1="0" y1="2336" x2="1428" y2="2336" />
<rect x="982" y="2314" width="14" height="12" rx="4" fill="#d1d5db" stroke="#9ca3af" stroke-width="0.75" opacity="0.94" />
<rect x="996" y="2314" width="42" height="12" rx="4" fill="#d1d5db" stroke="#9ca3af" stroke-width="0.75" opacity="0.94" />
<text class="label" x="16" y="2352">T-SDH-QLT-060 システムテストドキュメントルールの起草・レビュー</text>
<line class="row-grid" x1="0" y1="2360" x2="1428" y2="2360" />
<rect x="982" y="2338" width="14" height="12" rx="4" fill="#d1d5db" stroke="#9ca3af" stroke-width="0.75" opacity="0.94" />
<rect x="996" y="2338" width="28" height="12" rx="4" fill="#d1d5db" stroke="#9ca3af" stroke-width="0.75" opacity="0.94" />
<text class="label" x="16" y="2376">T-SDH-QLT-070 受入テストドキュメントルールの起草・レビュー</text>
<line class="row-grid" x1="0" y1="2384" x2="1428" y2="2384" />
<rect x="982" y="2362" width="14" height="12" rx="4" fill="#d1d5db" stroke="#9ca3af" stroke-width="0.75" opacity="0.94" />
<rect x="996" y="2362" width="42" height="12" rx="4" fill="#d1d5db" stroke="#9ca3af" stroke-width="0.75" opacity="0.94" />
<text class="label" x="16" y="2400">T-SDH-QLT-031 単体テストドキュメント派生成果物の起草・レビュー</text>
<line class="row-grid" x1="0" y1="2408" x2="1428" y2="2408" />
<rect x="1024" y="2386" width="28" height="12" rx="4" fill="#d1d5db" stroke="#9ca3af" stroke-width="0.75" opacity="0.94" />
<text class="label" x="16" y="2424">T-SDH-QLT-041 結合テストドキュメント派生成果物の起草・レビュー</text>
<line class="row-grid" x1="0" y1="2432" x2="1428" y2="2432" />
<rect x="1024" y="2410" width="28" height="12" rx="4" fill="#d1d5db" stroke="#9ca3af" stroke-width="0.75" opacity="0.94" />
<text class="label" x="16" y="2448">T-SDH-QLT-061 システムテストドキュメント派生成果物の起草・レビュー</text>
<line class="row-grid" x1="0" y1="2456" x2="1428" y2="2456" />
<rect x="1024" y="2434" width="28" height="12" rx="4" fill="#d1d5db" stroke="#9ca3af" stroke-width="0.75" opacity="0.94" />
<text class="label" x="16" y="2472">T-SDH-QLT-051 外部結合テスト派生成果物の起草・レビュー</text>
<line class="row-grid" x1="0" y1="2480" x2="1428" y2="2480" />
<rect x="1038" y="2458" width="14" height="12" rx="4" fill="#d1d5db" stroke="#9ca3af" stroke-width="0.75" opacity="0.94" />
<rect x="1164" y="2458" width="28" height="12" rx="4" fill="#d1d5db" stroke="#9ca3af" stroke-width="0.75" opacity="0.94" />
<text class="label" x="16" y="2496">T-SDH-QLT-071 受入テストドキュメント派生成果物の起草・レビュー</text>
<line class="row-grid" x1="0" y1="2504" x2="1428" y2="2504" />
<rect x="1038" y="2482" width="14" height="12" rx="4" fill="#d1d5db" stroke="#9ca3af" stroke-width="0.75" opacity="0.94" />
<rect x="1164" y="2482" width="28" height="12" rx="4" fill="#d1d5db" stroke="#9ca3af" stroke-width="0.75" opacity="0.94" />
<text class="label" x="16" y="2520">M-SDH-QLT-900 品質ドメイン完了</text>
<line class="row-grid" x1="0" y1="2528" x2="1428" y2="2528" />
<polygon points="1192,2511 1199,2518 1192,2525 1185,2518" fill="#b45309" />
</svg>