<svg xmlns="http://www.w3.org/2000/svg" width="868" height="3694" viewBox="0 0 868 3694" role="img" aria-label="プロジェクトタイムライン">
<style>
    text { font-family: ui-sans-serif, system-ui, -apple-system, BlinkMacSystemFont, 'Segoe UI', sans-serif; fill: #1f2937; }
    .title { font-size: 18px; font-weight: 700; fill: #0f172a; }
    .caption { font-size: 11px; fill: #64748b; }
    .section { font-size: 13px; font-weight: 700; fill: #0f172a; }
    .label { font-size: 12px; font-weight: 500; }
    .axis { font-size: 11px; fill: #475569; }
    .grid { stroke: #d7dee7; stroke-width: 1; }
    .row-grid { stroke: #edf2f7; stroke-width: 1; }
    .shade { fill: #f8fafc; }
    .holiday { fill: #eff6ff; }
    .legend-label { font-size: 11px; fill: #475569; }
  </style>
<rect x="0" y="0" width="868" height="3694" fill="#fffdf8" />
<rect x="0" y="0" width="380" height="3694" fill="#fffaf0" />
<rect x="380" y="0" width="488" height="3694" fill="#ffffff" />
<text class="title" x="16" y="28">プロジェクトタイムライン</text>
<text class="caption" x="16" y="48">1 タスク 1 行で表示します。1 日の長さは 8 時間で、休日と週末は空白のままとし、次の稼働日に作業を再開します。</text>
<rect x="0" y="72" width="868" height="28" fill="#fff7ed" />
<rect x="16" y="64" width="14" height="14" rx="3" fill="#d1d5db" />
<text class="legend-label" x="36" y="78">todo</text>
<rect x="92" y="64" width="14" height="14" rx="3" fill="#2563eb" />
<text class="legend-label" x="112" y="78">doing</text>
<rect x="168" y="64" width="14" height="14" rx="3" fill="#16a34a" />
<text class="legend-label" x="188" y="78">done</text>
<rect x="244" y="64" width="14" height="14" rx="3" fill="#f59e0b" />
<text class="legend-label" x="264" y="78">blocked</text>
<rect x="320" y="64" width="14" height="14" rx="3" fill="#dc2626" />
<text class="legend-label" x="340" y="78">critical</text>
<rect x="396" y="64" width="14" height="14" fill="#eff6ff" />
<text class="legend-label" x="416" y="78">holiday</text>
<rect x="486" y="64" width="14" height="14" fill="#f8fafc" stroke="#d7dee7" />
<text class="legend-label" x="506" y="78">weekend</text>
<rect class="shade" x="380" y="88" width="56" height="3586" />
<line class="grid" x1="380" y1="88" x2="380" y2="3662" />
<text class="axis" x="386" y="90">03/28</text>
<rect class="shade" x="436" y="88" width="56" height="3586" />
<line class="grid" x1="436" y1="88" x2="436" y2="3662" />
<text class="axis" x="442" y="90">03/29</text>
<line class="grid" x1="492" y1="88" x2="492" y2="3662" />
<text class="axis" x="498" y="90">03/30</text>
<line class="grid" x1="548" y1="88" x2="548" y2="3662" />
<text class="axis" x="554" y="90">03/31</text>
<line class="grid" x1="604" y1="88" x2="604" y2="3662" />
<text class="axis" x="610" y="90">04/01</text>
<line class="grid" x1="660" y1="88" x2="660" y2="3662" />
<text class="axis" x="666" y="90">04/02</text>
<line class="grid" x1="716" y1="88" x2="716" y2="3662" />
<text class="axis" x="722" y="90">04/03</text>
<rect class="shade" x="772" y="88" width="56" height="3586" />
<line class="grid" x1="772" y1="88" x2="772" y2="3662" />
<text class="axis" x="778" y="90">04/04</text>
<line class="grid" x1="828" y1="88" x2="828" y2="3662" />
<rect x="0" y="90" width="868" height="30" fill="#f1f5f9" />
<text class="section" x="16" y="108">milestones</text>
<line class="grid" x1="0" y1="116" x2="868" y2="116" />
<text class="label" x="16" y="146">M-SDH-100 スケジュールキックオフ</text>
<line class="row-grid" x1="0" y1="154" x2="868" y2="154" />
<polygon points="492,137 499,144 492,151 485,144" fill="#b45309" />
<text class="label" x="16" y="170">M-SDH-400 品質ベースライン確定</text>
<line class="row-grid" x1="0" y1="178" x2="868" y2="178" />
<polygon points="632,161 639,168 632,175 625,168" fill="#b45309" />
<text class="label" x="16" y="194">M-SDH-200 ガバナンスベースライン確定</text>
<line class="row-grid" x1="0" y1="202" x2="868" y2="202" />
<polygon points="660,185 667,192 660,199 653,192" fill="#b45309" />
<text class="label" x="16" y="218">M-SDH-300 業務・非機能要件ベースライン確定</text>
<line class="row-grid" x1="0" y1="226" x2="868" y2="226" />
<polygon points="716,209 723,216 716,223 709,216" fill="#b45309" />
<text class="label" x="16" y="242">M-SDH-350 設計ベースライン確定</text>
<line class="row-grid" x1="0" y1="250" x2="868" y2="250" />
<polygon points="730,233 737,240 730,247 723,240" fill="#b45309" />
<text class="label" x="16" y="266">M-SDH-999 prj-0001 スケジュールスコープ完了</text>
<line class="row-grid" x1="0" y1="274" x2="868" y2="274" />
<polygon points="730,257 737,264 730,271 723,264" fill="#b45309" />
<rect x="0" y="272" width="868" height="30" fill="#f1f5f9" />
<text class="section" x="16" y="290">agent-customization</text>
<line class="grid" x1="0" y1="298" x2="868" y2="298" />
<text class="label" x="16" y="328">T-SDH-AGT-010 Instructions セットの整備</text>
<line class="row-grid" x1="0" y1="336" x2="868" y2="336" />
<rect x="492" y="314" width="28" height="12" rx="4" fill="#d1d5db" stroke="#9ca3af" stroke-width="0.75" opacity="0.94" />
<text class="label" x="16" y="352">T-SDH-AGT-020 Skills セットの整備</text>
<line class="row-grid" x1="0" y1="360" x2="868" y2="360" />
<rect x="520" y="338" width="28" height="12" rx="4" fill="#d1d5db" stroke="#9ca3af" stroke-width="0.75" opacity="0.94" />
<text class="label" x="16" y="376">T-SDH-AGT-030 Prompts セットの整備</text>
<line class="row-grid" x1="0" y1="384" x2="868" y2="384" />
<rect x="548" y="362" width="28" height="12" rx="4" fill="#d1d5db" stroke="#9ca3af" stroke-width="0.75" opacity="0.94" />
<text class="label" x="16" y="400">T-SDH-AGT-040 カタログ整合性の確認</text>
<line class="row-grid" x1="0" y1="408" x2="868" y2="408" />
<rect x="576" y="386" width="14" height="12" rx="4" fill="#d1d5db" stroke="#9ca3af" stroke-width="0.75" opacity="0.94" />
<text class="label" x="16" y="424">M-SDH-AGT-900 エージェントカスタマイズドメイン完了</text>
<line class="row-grid" x1="0" y1="432" x2="868" y2="432" />
<polygon points="590,415 597,422 590,429 583,422" fill="#b45309" />
<rect x="0" y="430" width="868" height="30" fill="#f1f5f9" />
<text class="section" x="16" y="448">business</text>
<line class="grid" x1="0" y1="456" x2="868" y2="456" />
<text class="label" x="16" y="486">T-SDH-BIZ-010 業務プロセス仕様ルールの起草・レビュー</text>
<line class="row-grid" x1="0" y1="494" x2="868" y2="494" />
<rect x="492" y="472" width="28" height="12" rx="4" fill="#2563eb" stroke="#334155" stroke-width="0.75" opacity="0.94" />
<text class="label" x="16" y="510">T-SDH-BIZ-030 業務データディクショナリルールの起草・レビュー</text>
<line class="row-grid" x1="0" y1="518" x2="868" y2="518" />
<rect x="492" y="496" width="28" height="12" rx="4" fill="#d1d5db" stroke="#9ca3af" stroke-width="0.75" opacity="0.94" />
<text class="label" x="16" y="534">T-SDH-BIZ-060 用語集ルールの起草・レビュー</text>
<line class="row-grid" x1="0" y1="542" x2="868" y2="542" />
<rect x="492" y="520" width="28" height="12" rx="4" fill="#d1d5db" stroke="#9ca3af" stroke-width="0.75" opacity="0.94" />
<text class="label" x="16" y="558">T-SDH-BIZ-070 リファレンスデータルールの起草・レビュー</text>
<line class="row-grid" x1="0" y1="566" x2="868" y2="566" />
<rect x="492" y="544" width="56" height="12" rx="4" fill="#d1d5db" stroke="#9ca3af" stroke-width="0.75" opacity="0.94" />
<text class="label" x="16" y="582">T-SDH-BIZ-011-INS 業務プロセス仕様の起草・レビュー instruction.md の起草・レビュー</text>
<line class="row-grid" x1="0" y1="590" x2="868" y2="590" />
<rect x="520" y="568" width="14" height="12" rx="4" fill="#d1d5db" stroke="#9ca3af" stroke-width="0.75" opacity="0.94" />
<text class="label" x="16" y="606">T-SDH-BIZ-020 ビジネスルールのルール起草・レビュー</text>
<line class="row-grid" x1="0" y1="614" x2="868" y2="614" />
<rect x="520" y="592" width="28" height="12" rx="4" fill="#d1d5db" stroke="#9ca3af" stroke-width="0.75" opacity="0.94" />
<text class="label" x="16" y="630">T-SDH-BIZ-031-INS 業務データディクショナリの起草・レビュー instruction.md の起草・レビュー</text>
<line class="row-grid" x1="0" y1="638" x2="868" y2="638" />
<rect x="520" y="616" width="14" height="12" rx="4" fill="#d1d5db" stroke="#9ca3af" stroke-width="0.75" opacity="0.94" />
<text class="label" x="16" y="654">T-SDH-BIZ-040 帳票仕様ルールの起草・レビュー</text>
<line class="row-grid" x1="0" y1="662" x2="868" y2="662" />
<rect x="520" y="640" width="28" height="12" rx="4" fill="#d1d5db" stroke="#9ca3af" stroke-width="0.75" opacity="0.94" />
<text class="label" x="16" y="678">T-SDH-BIZ-050 画面仕様ルールの起草・レビュー</text>
<line class="row-grid" x1="0" y1="686" x2="868" y2="686" />
<rect x="520" y="664" width="28" height="12" rx="4" fill="#d1d5db" stroke="#9ca3af" stroke-width="0.75" opacity="0.94" />
<text class="label" x="16" y="702">T-SDH-BIZ-061-INS 用語集の起草・レビュー instruction.md の起草・レビュー</text>
<line class="row-grid" x1="0" y1="710" x2="868" y2="710" />
<rect x="520" y="688" width="14" height="12" rx="4" fill="#d1d5db" stroke="#9ca3af" stroke-width="0.75" opacity="0.94" />
<text class="label" x="16" y="726">T-SDH-BIZ-100 概念データストアルールの起草・レビュー</text>
<line class="row-grid" x1="0" y1="734" x2="868" y2="734" />
<rect x="520" y="712" width="28" height="12" rx="4" fill="#d1d5db" stroke="#9ca3af" stroke-width="0.75" opacity="0.94" />
<text class="label" x="16" y="750">T-SDH-BIZ-110 概念状態遷移ルールの起草・レビュー</text>
<line class="row-grid" x1="0" y1="758" x2="868" y2="758" />
<rect x="520" y="736" width="28" height="12" rx="4" fill="#d1d5db" stroke="#9ca3af" stroke-width="0.75" opacity="0.94" />
<rect x="548" y="736" width="14" height="12" rx="4" fill="#d1d5db" stroke="#9ca3af" stroke-width="0.75" opacity="0.94" />
<text class="label" x="16" y="774">T-SDH-BIZ-120 概念クラス図ルールの起草・レビュー</text>
<line class="row-grid" x1="0" y1="782" x2="868" y2="782" />
<rect x="520" y="760" width="28" height="12" rx="4" fill="#d1d5db" stroke="#9ca3af" stroke-width="0.75" opacity="0.94" />
<text class="label" x="16" y="798">T-SDH-BIZ-011-SMP 業務プロセス仕様の起草・レビュー sample.md の起草・レビュー</text>
<line class="row-grid" x1="0" y1="806" x2="868" y2="806" />
<rect x="534" y="784" width="14" height="12" rx="4" fill="#d1d5db" stroke="#9ca3af" stroke-width="0.75" opacity="0.94" />
<text class="label" x="16" y="822">T-SDH-BIZ-031-SMP 業務データディクショナリの起草・レビュー sample.md の起草・レビュー</text>
<line class="row-grid" x1="0" y1="830" x2="868" y2="830" />
<rect x="534" y="808" width="14" height="12" rx="4" fill="#d1d5db" stroke="#9ca3af" stroke-width="0.75" opacity="0.94" />
<text class="label" x="16" y="846">T-SDH-BIZ-061-SMP 用語集の起草・レビュー sample.md の起草・レビュー</text>
<line class="row-grid" x1="0" y1="854" x2="868" y2="854" />
<rect x="534" y="832" width="14" height="12" rx="4" fill="#d1d5db" stroke="#9ca3af" stroke-width="0.75" opacity="0.94" />
<text class="label" x="16" y="870">T-SDH-BIZ-021-INS ビジネスルールの起草・レビュー instruction.md の起草・レビュー</text>
<line class="row-grid" x1="0" y1="878" x2="868" y2="878" />
<rect x="548" y="856" width="14" height="12" rx="4" fill="#d1d5db" stroke="#9ca3af" stroke-width="0.75" opacity="0.94" />
<text class="label" x="16" y="894">T-SDH-BIZ-041-INS 帳票仕様の起草・レビュー instruction.md の起草・レビュー</text>
<line class="row-grid" x1="0" y1="902" x2="868" y2="902" />
<rect x="548" y="880" width="14" height="12" rx="4" fill="#d1d5db" stroke="#9ca3af" stroke-width="0.75" opacity="0.94" />
<text class="label" x="16" y="918">T-SDH-BIZ-051-INS 画面仕様の起草・レビュー instruction.md の起草・レビュー</text>
<line class="row-grid" x1="0" y1="926" x2="868" y2="926" />
<rect x="548" y="904" width="14" height="12" rx="4" fill="#d1d5db" stroke="#9ca3af" stroke-width="0.75" opacity="0.94" />
<text class="label" x="16" y="942">T-SDH-BIZ-071-INS リファレンスデータの起草・レビュー instruction.md の起草・レビュー</text>
<line class="row-grid" x1="0" y1="950" x2="868" y2="950" />
<rect x="548" y="928" width="14" height="12" rx="4" fill="#d1d5db" stroke="#9ca3af" stroke-width="0.75" opacity="0.94" />
<text class="label" x="16" y="966">T-SDH-BIZ-080 業務イベント仕様ルールの起草・レビュー</text>
<line class="row-grid" x1="0" y1="974" x2="868" y2="974" />
<rect x="548" y="952" width="42" height="12" rx="4" fill="#d1d5db" stroke="#9ca3af" stroke-width="0.75" opacity="0.94" />
<text class="label" x="16" y="990">T-SDH-BIZ-101-INS 概念データストアの起草・レビュー instruction.md の起草・レビュー</text>
<line class="row-grid" x1="0" y1="998" x2="868" y2="998" />
<rect x="548" y="976" width="14" height="12" rx="4" fill="#d1d5db" stroke="#9ca3af" stroke-width="0.75" opacity="0.94" />
<text class="label" x="16" y="1014">T-SDH-BIZ-121-INS 概念クラス図の起草・レビュー instruction.md の起草・レビュー</text>
<line class="row-grid" x1="0" y1="1022" x2="868" y2="1022" />
<rect x="548" y="1000" width="14" height="12" rx="4" fill="#d1d5db" stroke="#9ca3af" stroke-width="0.75" opacity="0.94" />
<text class="label" x="16" y="1038">T-SDH-BIZ-021-SMP ビジネスルールの起草・レビュー sample.md の起草・レビュー</text>
<line class="row-grid" x1="0" y1="1046" x2="868" y2="1046" />
<rect x="562" y="1024" width="14" height="12" rx="4" fill="#d1d5db" stroke="#9ca3af" stroke-width="0.75" opacity="0.94" />
<text class="label" x="16" y="1062">T-SDH-BIZ-041-SMP 帳票仕様の起草・レビュー sample.md の起草・レビュー</text>
<line class="row-grid" x1="0" y1="1070" x2="868" y2="1070" />
<rect x="562" y="1048" width="14" height="12" rx="4" fill="#d1d5db" stroke="#9ca3af" stroke-width="0.75" opacity="0.94" />
<text class="label" x="16" y="1086">T-SDH-BIZ-051-SMP 画面仕様の起草・レビュー sample.md の起草・レビュー</text>
<line class="row-grid" x1="0" y1="1094" x2="868" y2="1094" />
<rect x="562" y="1072" width="14" height="12" rx="4" fill="#d1d5db" stroke="#9ca3af" stroke-width="0.75" opacity="0.94" />
<text class="label" x="16" y="1110">T-SDH-BIZ-071-SMP リファレンスデータの起草・レビュー sample.md の起草・レビュー</text>
<line class="row-grid" x1="0" y1="1118" x2="868" y2="1118" />
<rect x="562" y="1096" width="14" height="12" rx="4" fill="#d1d5db" stroke="#9ca3af" stroke-width="0.75" opacity="0.94" />
<text class="label" x="16" y="1134">T-SDH-BIZ-101-SMP 概念データストアの起草・レビュー sample.md の起草・レビュー</text>
<line class="row-grid" x1="0" y1="1142" x2="868" y2="1142" />
<rect x="562" y="1120" width="14" height="12" rx="4" fill="#d1d5db" stroke="#9ca3af" stroke-width="0.75" opacity="0.94" />
<text class="label" x="16" y="1158">T-SDH-BIZ-111-INS 概念状態遷移の起草・レビュー instruction.md の起草・レビュー</text>
<line class="row-grid" x1="0" y1="1166" x2="868" y2="1166" />
<rect x="562" y="1144" width="14" height="12" rx="4" fill="#d1d5db" stroke="#9ca3af" stroke-width="0.75" opacity="0.94" />
<text class="label" x="16" y="1182">T-SDH-BIZ-121-SMP 概念クラス図の起草・レビュー sample.md の起草・レビュー</text>
<line class="row-grid" x1="0" y1="1190" x2="868" y2="1190" />
<rect x="562" y="1168" width="14" height="12" rx="4" fill="#d1d5db" stroke="#9ca3af" stroke-width="0.75" opacity="0.94" />
<text class="label" x="16" y="1206">T-SDH-BIZ-111-SMP 概念状態遷移の起草・レビュー sample.md の起草・レビュー</text>
<line class="row-grid" x1="0" y1="1214" x2="868" y2="1214" />
<rect x="576" y="1192" width="14" height="12" rx="4" fill="#d1d5db" stroke="#9ca3af" stroke-width="0.75" opacity="0.94" />
<text class="label" x="16" y="1230">T-SDH-BIZ-081-INS 業務イベント仕様の起草・レビュー instruction.md の起草・レビュー</text>
<line class="row-grid" x1="0" y1="1238" x2="868" y2="1238" />
<rect x="590" y="1216" width="14" height="12" rx="4" fill="#d1d5db" stroke="#9ca3af" stroke-width="0.75" opacity="0.94" />
<text class="label" x="16" y="1254">T-SDH-BIZ-090 概念データフロールールの起草・レビュー</text>
<line class="row-grid" x1="0" y1="1262" x2="868" y2="1262" />
<rect x="590" y="1240" width="14" height="12" rx="4" fill="#d1d5db" stroke="#9ca3af" stroke-width="0.75" opacity="0.94" />
<rect x="604" y="1240" width="28" height="12" rx="4" fill="#d1d5db" stroke="#9ca3af" stroke-width="0.75" opacity="0.94" />
<text class="label" x="16" y="1278">T-SDH-BIZ-130 システム機能一覧ルールの起草・レビュー</text>
<line class="row-grid" x1="0" y1="1286" x2="868" y2="1286" />
<rect x="590" y="1264" width="14" height="12" rx="4" fill="#d1d5db" stroke="#9ca3af" stroke-width="0.75" opacity="0.94" />
<rect x="604" y="1264" width="28" height="12" rx="4" fill="#d1d5db" stroke="#9ca3af" stroke-width="0.75" opacity="0.94" />
<text class="label" x="16" y="1302">T-SDH-BIZ-081-SMP 業務イベント仕様の起草・レビュー sample.md の起草・レビュー</text>
<line class="row-grid" x1="0" y1="1310" x2="868" y2="1310" />
<rect x="604" y="1288" width="14" height="12" rx="4" fill="#d1d5db" stroke="#9ca3af" stroke-width="0.75" opacity="0.94" />
<text class="label" x="16" y="1326">T-SDH-BIZ-091-INS 概念データフローの起草・レビュー instruction.md の起草・レビュー</text>
<line class="row-grid" x1="0" y1="1334" x2="868" y2="1334" />
<rect x="632" y="1312" width="14" height="12" rx="4" fill="#d1d5db" stroke="#9ca3af" stroke-width="0.75" opacity="0.94" />
<text class="label" x="16" y="1350">T-SDH-BIZ-131-INS システム機能一覧の起草・レビュー instruction.md の起草・レビュー</text>
<line class="row-grid" x1="0" y1="1358" x2="868" y2="1358" />
<rect x="632" y="1336" width="14" height="12" rx="4" fill="#d1d5db" stroke="#9ca3af" stroke-width="0.75" opacity="0.94" />
<text class="label" x="16" y="1374">T-SDH-BIZ-091-SMP 概念データフローの起草・レビュー sample.md の起草・レビュー</text>
<line class="row-grid" x1="0" y1="1382" x2="868" y2="1382" />
<rect x="646" y="1360" width="14" height="12" rx="4" fill="#d1d5db" stroke="#9ca3af" stroke-width="0.75" opacity="0.94" />
<text class="label" x="16" y="1398">T-SDH-BIZ-131-SMP システム機能一覧の起草・レビュー sample.md の起草・レビュー</text>
<line class="row-grid" x1="0" y1="1406" x2="868" y2="1406" />
<rect x="646" y="1384" width="14" height="12" rx="4" fill="#d1d5db" stroke="#9ca3af" stroke-width="0.75" opacity="0.94" />
<text class="label" x="16" y="1422">T-SDH-BIZ-140 業務受入条件ルールの起草・レビュー</text>
<line class="row-grid" x1="0" y1="1430" x2="868" y2="1430" />
<rect x="660" y="1408" width="28" height="12" rx="4" fill="#d1d5db" stroke="#9ca3af" stroke-width="0.75" opacity="0.94" />
<text class="label" x="16" y="1446">T-SDH-BIZ-141-INS 業務受入条件の起草・レビュー instruction.md の起草・レビュー</text>
<line class="row-grid" x1="0" y1="1454" x2="868" y2="1454" />
<rect x="688" y="1432" width="14" height="12" rx="4" fill="#d1d5db" stroke="#9ca3af" stroke-width="0.75" opacity="0.94" />
<text class="label" x="16" y="1470">T-SDH-BIZ-141-SMP 業務受入条件の起草・レビュー sample.md の起草・レビュー</text>
<line class="row-grid" x1="0" y1="1478" x2="868" y2="1478" />
<rect x="702" y="1456" width="14" height="12" rx="4" fill="#d1d5db" stroke="#9ca3af" stroke-width="0.75" opacity="0.94" />
<text class="label" x="16" y="1494">M-SDH-BIZ-900 業務ドメイン完了</text>
<line class="row-grid" x1="0" y1="1502" x2="868" y2="1502" />
<polygon points="716,1485 723,1492 716,1499 709,1492" fill="#b45309" />
<rect x="0" y="1500" width="868" height="30" fill="#f1f5f9" />
<text class="section" x="16" y="1518">design</text>
<line class="grid" x1="0" y1="1526" x2="868" y2="1526" />
<text class="label" x="16" y="1556">T-SDH-DES-010 外部インターフェースルールの起草・レビュー</text>
<line class="row-grid" x1="0" y1="1564" x2="868" y2="1564" />
<rect x="492" y="1542" width="56" height="12" rx="4" fill="#d1d5db" stroke="#9ca3af" stroke-width="0.75" opacity="0.94" />
<rect x="548" y="1542" width="14" height="12" rx="4" fill="#d1d5db" stroke="#9ca3af" stroke-width="0.75" opacity="0.94" />
<text class="label" x="16" y="1580">T-SDH-DES-020 C4 コンテキスト図ルールの起草・レビュー</text>
<line class="row-grid" x1="0" y1="1588" x2="868" y2="1588" />
<rect x="492" y="1566" width="42" height="12" rx="4" fill="#dc2626" stroke="#991b1b" stroke-width="1.25" opacity="0.94" />
<text class="label" x="16" y="1604">T-SDH-DES-060 技術スタック定義ルールの起草・レビュー</text>
<line class="row-grid" x1="0" y1="1612" x2="868" y2="1612" />
<rect x="492" y="1590" width="28" height="12" rx="4" fill="#d1d5db" stroke="#9ca3af" stroke-width="0.75" opacity="0.94" />
<text class="label" x="16" y="1628">T-SDH-DES-061-INS 技術スタック定義の起草・レビュー instruction.md の起草・レビュー</text>
<line class="row-grid" x1="0" y1="1636" x2="868" y2="1636" />
<rect x="520" y="1614" width="14" height="12" rx="4" fill="#d1d5db" stroke="#9ca3af" stroke-width="0.75" opacity="0.94" />
<text class="label" x="16" y="1652">T-SDH-DES-021-INS C4 コンテキスト図の起草・レビュー instruction.md の起草・レビュー</text>
<line class="row-grid" x1="0" y1="1660" x2="868" y2="1660" />
<rect x="534" y="1638" width="14" height="12" rx="4" fill="#d1d5db" stroke="#9ca3af" stroke-width="0.75" opacity="0.94" />
<text class="label" x="16" y="1676">T-SDH-DES-030 C4 コンテナ図ルールの起草・レビュー</text>
<line class="row-grid" x1="0" y1="1684" x2="868" y2="1684" />
<rect x="534" y="1662" width="14" height="12" rx="4" fill="#dc2626" stroke="#991b1b" stroke-width="1.25" opacity="0.94" />
<rect x="548" y="1662" width="28" height="12" rx="4" fill="#dc2626" stroke="#991b1b" stroke-width="1.25" opacity="0.94" />
<text class="label" x="16" y="1700">T-SDH-DES-050 インフラ構成図ルールの起草・レビュー</text>
<line class="row-grid" x1="0" y1="1708" x2="868" y2="1708" />
<rect x="534" y="1686" width="14" height="12" rx="4" fill="#d1d5db" stroke="#9ca3af" stroke-width="0.75" opacity="0.94" />
<rect x="548" y="1686" width="14" height="12" rx="4" fill="#d1d5db" stroke="#9ca3af" stroke-width="0.75" opacity="0.94" />
<text class="label" x="16" y="1724">T-SDH-DES-061-SMP 技術スタック定義の起草・レビュー sample.md の起草・レビュー</text>
<line class="row-grid" x1="0" y1="1732" x2="868" y2="1732" />
<rect x="534" y="1710" width="14" height="12" rx="4" fill="#d1d5db" stroke="#9ca3af" stroke-width="0.75" opacity="0.94" />
<text class="label" x="16" y="1748">T-SDH-DES-021-SMP C4 コンテキスト図の起草・レビュー sample.md の起草・レビュー</text>
<line class="row-grid" x1="0" y1="1756" x2="868" y2="1756" />
<rect x="548" y="1734" width="14" height="12" rx="4" fill="#d1d5db" stroke="#9ca3af" stroke-width="0.75" opacity="0.94" />
<text class="label" x="16" y="1772">T-SDH-DES-011-INS 外部インターフェースの起草・レビュー instruction.md の起草・レビュー</text>
<line class="row-grid" x1="0" y1="1780" x2="868" y2="1780" />
<rect x="562" y="1758" width="28" height="12" rx="4" fill="#d1d5db" stroke="#9ca3af" stroke-width="0.75" opacity="0.94" />
<text class="label" x="16" y="1796">T-SDH-DES-051-INS インフラ構成図の起草・レビュー instruction.md の起草・レビュー</text>
<line class="row-grid" x1="0" y1="1804" x2="868" y2="1804" />
<rect x="562" y="1782" width="14" height="12" rx="4" fill="#d1d5db" stroke="#9ca3af" stroke-width="0.75" opacity="0.94" />
<text class="label" x="16" y="1820">T-SDH-DES-031-INS C4 コンテナ図の起草・レビュー instruction.md の起草・レビュー</text>
<line class="row-grid" x1="0" y1="1828" x2="868" y2="1828" />
<rect x="576" y="1806" width="14" height="12" rx="4" fill="#d1d5db" stroke="#9ca3af" stroke-width="0.75" opacity="0.94" />
<text class="label" x="16" y="1844">T-SDH-DES-040 C4 コンポーネント図ルールの起草・レビュー</text>
<line class="row-grid" x1="0" y1="1852" x2="868" y2="1852" />
<rect x="576" y="1830" width="28" height="12" rx="4" fill="#dc2626" stroke="#991b1b" stroke-width="1.25" opacity="0.94" />
<rect x="604" y="1830" width="14" height="12" rx="4" fill="#dc2626" stroke="#991b1b" stroke-width="1.25" opacity="0.94" />
<text class="label" x="16" y="1868">T-SDH-DES-051-SMP インフラ構成図の起草・レビュー sample.md の起草・レビュー</text>
<line class="row-grid" x1="0" y1="1876" x2="868" y2="1876" />
<rect x="576" y="1854" width="14" height="12" rx="4" fill="#d1d5db" stroke="#9ca3af" stroke-width="0.75" opacity="0.94" />
<text class="label" x="16" y="1892">T-SDH-DES-011-SMP 外部インターフェースの起草・レビュー sample.md の起草・レビュー</text>
<line class="row-grid" x1="0" y1="1900" x2="868" y2="1900" />
<rect x="590" y="1878" width="14" height="12" rx="4" fill="#d1d5db" stroke="#9ca3af" stroke-width="0.75" opacity="0.94" />
<text class="label" x="16" y="1916">T-SDH-DES-031-SMP C4 コンテナ図の起草・レビュー sample.md の起草・レビュー</text>
<line class="row-grid" x1="0" y1="1924" x2="868" y2="1924" />
<rect x="590" y="1902" width="14" height="12" rx="4" fill="#d1d5db" stroke="#9ca3af" stroke-width="0.75" opacity="0.94" />
<text class="label" x="16" y="1940">T-SDH-DES-041-INS C4 コンポーネント図の起草・レビュー instruction.md の起草・レビュー</text>
<line class="row-grid" x1="0" y1="1948" x2="868" y2="1948" />
<rect x="618" y="1926" width="14" height="12" rx="4" fill="#dc2626" stroke="#991b1b" stroke-width="1.25" opacity="0.94" />
<text class="label" x="16" y="1964">T-SDH-DES-041-SMP C4 コンポーネント図の起草・レビュー sample.md の起草・レビュー</text>
<line class="row-grid" x1="0" y1="1972" x2="868" y2="1972" />
<rect x="632" y="1950" width="14" height="12" rx="4" fill="#dc2626" stroke="#991b1b" stroke-width="1.25" opacity="0.94" />
<text class="label" x="16" y="1988">T-SDH-DES-070 システム設計ルールの起草・レビュー</text>
<line class="row-grid" x1="0" y1="1996" x2="868" y2="1996" />
<rect x="646" y="1974" width="14" height="12" rx="4" fill="#dc2626" stroke="#991b1b" stroke-width="1.25" opacity="0.94" />
<rect x="660" y="1974" width="42" height="12" rx="4" fill="#dc2626" stroke="#991b1b" stroke-width="1.25" opacity="0.94" />
<text class="label" x="16" y="2012">T-SDH-DES-071-INS システム設計の起草・レビュー instruction.md の起草・レビュー</text>
<line class="row-grid" x1="0" y1="2020" x2="868" y2="2020" />
<rect x="702" y="1998" width="14" height="12" rx="4" fill="#dc2626" stroke="#991b1b" stroke-width="1.25" opacity="0.94" />
<text class="label" x="16" y="2036">T-SDH-DES-071-SMP システム設計の起草・レビュー sample.md の起草・レビュー</text>
<line class="row-grid" x1="0" y1="2044" x2="868" y2="2044" />
<rect x="716" y="2022" width="14" height="12" rx="4" fill="#dc2626" stroke="#991b1b" stroke-width="1.25" opacity="0.94" />
<text class="label" x="16" y="2060">M-SDH-DES-900 設計ドメイン完了</text>
<line class="row-grid" x1="0" y1="2068" x2="868" y2="2068" />
<polygon points="730,2051 737,2058 730,2065 723,2058" fill="#b45309" />
<rect x="0" y="2066" width="868" height="30" fill="#f1f5f9" />
<text class="section" x="16" y="2084">governance</text>
<line class="grid" x1="0" y1="2092" x2="868" y2="2092" />
<text class="label" x="16" y="2122">T-SDH-GOV-010 プロジェクトドキュメントルールの起草・レビュー</text>
<line class="row-grid" x1="0" y1="2130" x2="868" y2="2130" />
<rect x="492" y="2108" width="56" height="12" rx="4" fill="#2563eb" stroke="#334155" stroke-width="0.75" opacity="0.94" />
<text class="label" x="16" y="2146">T-SDH-GOV-040 共有メタルールブックガバナンスセットの整合</text>
<line class="row-grid" x1="0" y1="2154" x2="868" y2="2154" />
<rect x="492" y="2132" width="42" height="12" rx="4" fill="#d1d5db" stroke="#9ca3af" stroke-width="0.75" opacity="0.94" />
<text class="label" x="16" y="2170">T-SDH-GOV-011-INS プロジェクトドキュメントの起草・レビュー instruction.md の起草・レビュー</text>
<line class="row-grid" x1="0" y1="2178" x2="868" y2="2178" />
<rect x="548" y="2156" width="14" height="12" rx="4" fill="#d1d5db" stroke="#9ca3af" stroke-width="0.75" opacity="0.94" />
<text class="label" x="16" y="2194">T-SDH-GOV-020 移行ルールの起草・レビュー</text>
<line class="row-grid" x1="0" y1="2202" x2="868" y2="2202" />
<rect x="548" y="2180" width="56" height="12" rx="4" fill="#d1d5db" stroke="#9ca3af" stroke-width="0.75" opacity="0.94" />
<rect x="604" y="2180" width="14" height="12" rx="4" fill="#d1d5db" stroke="#9ca3af" stroke-width="0.75" opacity="0.94" />
<text class="label" x="16" y="2218">T-SDH-GOV-030 運用ルールの起草・レビュー</text>
<line class="row-grid" x1="0" y1="2226" x2="868" y2="2226" />
<rect x="548" y="2204" width="42" height="12" rx="4" fill="#d1d5db" stroke="#9ca3af" stroke-width="0.75" opacity="0.94" />
<text class="label" x="16" y="2242">T-SDH-GOV-011-SMP プロジェクトドキュメントの起草・レビュー sample.md の起草・レビュー</text>
<line class="row-grid" x1="0" y1="2250" x2="868" y2="2250" />
<rect x="562" y="2228" width="14" height="12" rx="4" fill="#d1d5db" stroke="#9ca3af" stroke-width="0.75" opacity="0.94" />
<text class="label" x="16" y="2266">T-SDH-GOV-031-INS 運用の起草・レビュー instruction.md の起草・レビュー</text>
<line class="row-grid" x1="0" y1="2274" x2="868" y2="2274" />
<rect x="590" y="2252" width="14" height="12" rx="4" fill="#d1d5db" stroke="#9ca3af" stroke-width="0.75" opacity="0.94" />
<text class="label" x="16" y="2290">T-SDH-GOV-031-SMP 運用の起草・レビュー sample.md の起草・レビュー</text>
<line class="row-grid" x1="0" y1="2298" x2="868" y2="2298" />
<rect x="604" y="2276" width="14" height="12" rx="4" fill="#d1d5db" stroke="#9ca3af" stroke-width="0.75" opacity="0.94" />
<text class="label" x="16" y="2314">T-SDH-GOV-021-INS 移行の起草・レビュー instruction.md の起草・レビュー</text>
<line class="row-grid" x1="0" y1="2322" x2="868" y2="2322" />
<rect x="618" y="2300" width="28" height="12" rx="4" fill="#d1d5db" stroke="#9ca3af" stroke-width="0.75" opacity="0.94" />
<text class="label" x="16" y="2338">T-SDH-GOV-021-SMP 移行の起草・レビュー sample.md の起草・レビュー</text>
<line class="row-grid" x1="0" y1="2346" x2="868" y2="2346" />
<rect x="646" y="2324" width="14" height="12" rx="4" fill="#d1d5db" stroke="#9ca3af" stroke-width="0.75" opacity="0.94" />
<text class="label" x="16" y="2362">M-SDH-GOV-900 ガバナンスドメイン完了</text>
<line class="row-grid" x1="0" y1="2370" x2="868" y2="2370" />
<polygon points="660,2353 667,2360 660,2367 653,2360" fill="#b45309" />
<rect x="0" y="2368" width="868" height="30" fill="#f1f5f9" />
<text class="section" x="16" y="2386">nfr</text>
<line class="grid" x1="0" y1="2394" x2="868" y2="2394" />
<text class="label" x="16" y="2424">T-SDH-NFR-010 NFR インデックスルールの起草・レビュー</text>
<line class="row-grid" x1="0" y1="2432" x2="868" y2="2432" />
<rect x="492" y="2410" width="28" height="12" rx="4" fill="#d1d5db" stroke="#9ca3af" stroke-width="0.75" opacity="0.94" />
<text class="label" x="16" y="2448">T-SDH-NFR-011-INS NFR インデックスの起草・レビュー instruction.md の起草・レビュー</text>
<line class="row-grid" x1="0" y1="2456" x2="868" y2="2456" />
<rect x="520" y="2434" width="14" height="12" rx="4" fill="#d1d5db" stroke="#9ca3af" stroke-width="0.75" opacity="0.94" />
<text class="label" x="16" y="2472">T-SDH-NFR-020 可用性要件ルールの起草・レビュー</text>
<line class="row-grid" x1="0" y1="2480" x2="868" y2="2480" />
<rect x="520" y="2458" width="28" height="12" rx="4" fill="#d1d5db" stroke="#9ca3af" stroke-width="0.75" opacity="0.94" />
<text class="label" x="16" y="2496">T-SDH-NFR-030 完全性要件ルールの起草・レビュー</text>
<line class="row-grid" x1="0" y1="2504" x2="868" y2="2504" />
<rect x="520" y="2482" width="28" height="12" rx="4" fill="#d1d5db" stroke="#9ca3af" stroke-width="0.75" opacity="0.94" />
<text class="label" x="16" y="2520">T-SDH-NFR-040 保守性要件ルールの起草・レビュー</text>
<line class="row-grid" x1="0" y1="2528" x2="868" y2="2528" />
<rect x="520" y="2506" width="28" height="12" rx="4" fill="#d1d5db" stroke="#9ca3af" stroke-width="0.75" opacity="0.94" />
<text class="label" x="16" y="2544">T-SDH-NFR-050 運用性要件ルールの起草・レビュー</text>
<line class="row-grid" x1="0" y1="2552" x2="868" y2="2552" />
<rect x="520" y="2530" width="28" height="12" rx="4" fill="#d1d5db" stroke="#9ca3af" stroke-width="0.75" opacity="0.94" />
<text class="label" x="16" y="2568">T-SDH-NFR-060 性能要件ルールの起草・レビュー</text>
<line class="row-grid" x1="0" y1="2576" x2="868" y2="2576" />
<rect x="520" y="2554" width="28" height="12" rx="4" fill="#d1d5db" stroke="#9ca3af" stroke-width="0.75" opacity="0.94" />
<text class="label" x="16" y="2592">T-SDH-NFR-090 ユーザビリティ要件ルールの起草・レビュー</text>
<line class="row-grid" x1="0" y1="2600" x2="868" y2="2600" />
<rect x="520" y="2578" width="28" height="12" rx="4" fill="#d1d5db" stroke="#9ca3af" stroke-width="0.75" opacity="0.94" />
<text class="label" x="16" y="2616">T-SDH-NFR-011-SMP NFR インデックスの起草・レビュー sample.md の起草・レビュー</text>
<line class="row-grid" x1="0" y1="2624" x2="868" y2="2624" />
<rect x="534" y="2602" width="14" height="12" rx="4" fill="#d1d5db" stroke="#9ca3af" stroke-width="0.75" opacity="0.94" />
<text class="label" x="16" y="2640">T-SDH-NFR-021-INS 可用性要件の起草・レビュー instruction.md の起草・レビュー</text>
<line class="row-grid" x1="0" y1="2648" x2="868" y2="2648" />
<rect x="548" y="2626" width="14" height="12" rx="4" fill="#d1d5db" stroke="#9ca3af" stroke-width="0.75" opacity="0.94" />
<text class="label" x="16" y="2664">T-SDH-NFR-031-INS 完全性要件の起草・レビュー instruction.md の起草・レビュー</text>
<line class="row-grid" x1="0" y1="2672" x2="868" y2="2672" />
<rect x="548" y="2650" width="14" height="12" rx="4" fill="#d1d5db" stroke="#9ca3af" stroke-width="0.75" opacity="0.94" />
<text class="label" x="16" y="2688">T-SDH-NFR-041-INS 保守性要件の起草・レビュー instruction.md の起草・レビュー</text>
<line class="row-grid" x1="0" y1="2696" x2="868" y2="2696" />
<rect x="548" y="2674" width="14" height="12" rx="4" fill="#d1d5db" stroke="#9ca3af" stroke-width="0.75" opacity="0.94" />
<text class="label" x="16" y="2712">T-SDH-NFR-051-INS 運用性要件の起草・レビュー instruction.md の起草・レビュー</text>
<line class="row-grid" x1="0" y1="2720" x2="868" y2="2720" />
<rect x="548" y="2698" width="14" height="12" rx="4" fill="#d1d5db" stroke="#9ca3af" stroke-width="0.75" opacity="0.94" />
<text class="label" x="16" y="2736">T-SDH-NFR-061-INS 性能要件の起草・レビュー instruction.md の起草・レビュー</text>
<line class="row-grid" x1="0" y1="2744" x2="868" y2="2744" />
<rect x="548" y="2722" width="14" height="12" rx="4" fill="#d1d5db" stroke="#9ca3af" stroke-width="0.75" opacity="0.94" />
<text class="label" x="16" y="2760">T-SDH-NFR-070 信頼性要件ルールの起草・レビュー</text>
<line class="row-grid" x1="0" y1="2768" x2="868" y2="2768" />
<rect x="548" y="2746" width="28" height="12" rx="4" fill="#d1d5db" stroke="#9ca3af" stroke-width="0.75" opacity="0.94" />
<text class="label" x="16" y="2784">T-SDH-NFR-080 セキュリティ・安全性要件ルールの起草・レビュー</text>
<line class="row-grid" x1="0" y1="2792" x2="868" y2="2792" />
<rect x="548" y="2770" width="28" height="12" rx="4" fill="#d1d5db" stroke="#9ca3af" stroke-width="0.75" opacity="0.94" />
<text class="label" x="16" y="2808">T-SDH-NFR-091-INS ユーザビリティ要件の起草・レビュー instruction.md の起草・レビュー</text>
<line class="row-grid" x1="0" y1="2816" x2="868" y2="2816" />
<rect x="548" y="2794" width="14" height="12" rx="4" fill="#d1d5db" stroke="#9ca3af" stroke-width="0.75" opacity="0.94" />
<text class="label" x="16" y="2832">T-SDH-NFR-021-SMP 可用性要件の起草・レビュー sample.md の起草・レビュー</text>
<line class="row-grid" x1="0" y1="2840" x2="868" y2="2840" />
<rect x="562" y="2818" width="14" height="12" rx="4" fill="#d1d5db" stroke="#9ca3af" stroke-width="0.75" opacity="0.94" />
<text class="label" x="16" y="2856">T-SDH-NFR-031-SMP 完全性要件の起草・レビュー sample.md の起草・レビュー</text>
<line class="row-grid" x1="0" y1="2864" x2="868" y2="2864" />
<rect x="562" y="2842" width="14" height="12" rx="4" fill="#d1d5db" stroke="#9ca3af" stroke-width="0.75" opacity="0.94" />
<text class="label" x="16" y="2880">T-SDH-NFR-041-SMP 保守性要件の起草・レビュー sample.md の起草・レビュー</text>
<line class="row-grid" x1="0" y1="2888" x2="868" y2="2888" />
<rect x="562" y="2866" width="14" height="12" rx="4" fill="#d1d5db" stroke="#9ca3af" stroke-width="0.75" opacity="0.94" />
<text class="label" x="16" y="2904">T-SDH-NFR-051-SMP 運用性要件の起草・レビュー sample.md の起草・レビュー</text>
<line class="row-grid" x1="0" y1="2912" x2="868" y2="2912" />
<rect x="562" y="2890" width="14" height="12" rx="4" fill="#d1d5db" stroke="#9ca3af" stroke-width="0.75" opacity="0.94" />
<text class="label" x="16" y="2928">T-SDH-NFR-061-SMP 性能要件の起草・レビュー sample.md の起草・レビュー</text>
<line class="row-grid" x1="0" y1="2936" x2="868" y2="2936" />
<rect x="562" y="2914" width="14" height="12" rx="4" fill="#d1d5db" stroke="#9ca3af" stroke-width="0.75" opacity="0.94" />
<text class="label" x="16" y="2952">T-SDH-NFR-091-SMP ユーザビリティ要件の起草・レビュー sample.md の起草・レビュー</text>
<line class="row-grid" x1="0" y1="2960" x2="868" y2="2960" />
<rect x="562" y="2938" width="14" height="12" rx="4" fill="#d1d5db" stroke="#9ca3af" stroke-width="0.75" opacity="0.94" />
<text class="label" x="16" y="2976">T-SDH-NFR-071-INS 信頼性要件の起草・レビュー instruction.md の起草・レビュー</text>
<line class="row-grid" x1="0" y1="2984" x2="868" y2="2984" />
<rect x="576" y="2962" width="14" height="12" rx="4" fill="#d1d5db" stroke="#9ca3af" stroke-width="0.75" opacity="0.94" />
<text class="label" x="16" y="3000">T-SDH-NFR-081-INS セキュリティ・安全性要件の起草・レビュー instruction.md の起草・レビュー</text>
<line class="row-grid" x1="0" y1="3008" x2="868" y2="3008" />
<rect x="576" y="2986" width="14" height="12" rx="4" fill="#d1d5db" stroke="#9ca3af" stroke-width="0.75" opacity="0.94" />
<text class="label" x="16" y="3024">T-SDH-NFR-071-SMP 信頼性要件の起草・レビュー sample.md の起草・レビュー</text>
<line class="row-grid" x1="0" y1="3032" x2="868" y2="3032" />
<rect x="590" y="3010" width="14" height="12" rx="4" fill="#d1d5db" stroke="#9ca3af" stroke-width="0.75" opacity="0.94" />
<text class="label" x="16" y="3048">T-SDH-NFR-081-SMP セキュリティ・安全性要件の起草・レビュー sample.md の起草・レビュー</text>
<line class="row-grid" x1="0" y1="3056" x2="868" y2="3056" />
<rect x="590" y="3034" width="14" height="12" rx="4" fill="#d1d5db" stroke="#9ca3af" stroke-width="0.75" opacity="0.94" />
<text class="label" x="16" y="3072">M-SDH-NFR-900 非機能要件ドメイン完了</text>
<line class="row-grid" x1="0" y1="3080" x2="868" y2="3080" />
<polygon points="604,3063 611,3070 604,3077 597,3070" fill="#b45309" />
<rect x="0" y="3078" width="868" height="30" fill="#f1f5f9" />
<text class="section" x="16" y="3096">quality</text>
<line class="grid" x1="0" y1="3104" x2="868" y2="3104" />
<text class="label" x="16" y="3134">T-SDH-QLT-010 システム受入条件ルールの起草・レビュー</text>
<line class="row-grid" x1="0" y1="3142" x2="868" y2="3142" />
<rect x="492" y="3120" width="28" height="12" rx="4" fill="#d1d5db" stroke="#9ca3af" stroke-width="0.75" opacity="0.94" />
<text class="label" x="16" y="3158">T-SDH-QLT-020 テスト戦略・計画ルールの起草・レビュー</text>
<line class="row-grid" x1="0" y1="3166" x2="868" y2="3166" />
<rect x="492" y="3144" width="28" height="12" rx="4" fill="#d1d5db" stroke="#9ca3af" stroke-width="0.75" opacity="0.94" />
<text class="label" x="16" y="3182">T-SDH-QLT-011-INS システム受入条件の起草・レビュー instruction.md の起草・レビュー</text>
<line class="row-grid" x1="0" y1="3190" x2="868" y2="3190" />
<rect x="520" y="3168" width="14" height="12" rx="4" fill="#d1d5db" stroke="#9ca3af" stroke-width="0.75" opacity="0.94" />
<text class="label" x="16" y="3206">T-SDH-QLT-021-INS テスト戦略・計画の起草・レビュー instruction.md の起草・レビュー</text>
<line class="row-grid" x1="0" y1="3214" x2="868" y2="3214" />
<rect x="520" y="3192" width="14" height="12" rx="4" fill="#d1d5db" stroke="#9ca3af" stroke-width="0.75" opacity="0.94" />
<text class="label" x="16" y="3230">T-SDH-QLT-011-SMP システム受入条件の起草・レビュー sample.md の起草・レビュー</text>
<line class="row-grid" x1="0" y1="3238" x2="868" y2="3238" />
<rect x="534" y="3216" width="14" height="12" rx="4" fill="#d1d5db" stroke="#9ca3af" stroke-width="0.75" opacity="0.94" />
<text class="label" x="16" y="3254">T-SDH-QLT-021-SMP テスト戦略・計画の起草・レビュー sample.md の起草・レビュー</text>
<line class="row-grid" x1="0" y1="3262" x2="868" y2="3262" />
<rect x="534" y="3240" width="14" height="12" rx="4" fill="#d1d5db" stroke="#9ca3af" stroke-width="0.75" opacity="0.94" />
<text class="label" x="16" y="3278">T-SDH-QLT-030 単体テストドキュメントルールの起草・レビュー</text>
<line class="row-grid" x1="0" y1="3286" x2="868" y2="3286" />
<rect x="548" y="3264" width="42" height="12" rx="4" fill="#d1d5db" stroke="#9ca3af" stroke-width="0.75" opacity="0.94" />
<text class="label" x="16" y="3302">T-SDH-QLT-040 結合テストドキュメントルールの起草・レビュー</text>
<line class="row-grid" x1="0" y1="3310" x2="868" y2="3310" />
<rect x="548" y="3288" width="42" height="12" rx="4" fill="#d1d5db" stroke="#9ca3af" stroke-width="0.75" opacity="0.94" />
<text class="label" x="16" y="3326">T-SDH-QLT-050 外部結合テストルールの起草・レビュー</text>
<line class="row-grid" x1="0" y1="3334" x2="868" y2="3334" />
<rect x="548" y="3312" width="56" height="12" rx="4" fill="#d1d5db" stroke="#9ca3af" stroke-width="0.75" opacity="0.94" />
<text class="label" x="16" y="3350">T-SDH-QLT-060 システムテストドキュメントルールの起草・レビュー</text>
<line class="row-grid" x1="0" y1="3358" x2="868" y2="3358" />
<rect x="548" y="3336" width="42" height="12" rx="4" fill="#d1d5db" stroke="#9ca3af" stroke-width="0.75" opacity="0.94" />
<text class="label" x="16" y="3374">T-SDH-QLT-070 受入テストドキュメントルールの起草・レビュー</text>
<line class="row-grid" x1="0" y1="3382" x2="868" y2="3382" />
<rect x="548" y="3360" width="56" height="12" rx="4" fill="#d1d5db" stroke="#9ca3af" stroke-width="0.75" opacity="0.94" />
<text class="label" x="16" y="3398">T-SDH-QLT-031-INS 単体テストドキュメントの起草・レビュー instruction.md の起草・レビュー</text>
<line class="row-grid" x1="0" y1="3406" x2="868" y2="3406" />
<rect x="590" y="3384" width="14" height="12" rx="4" fill="#d1d5db" stroke="#9ca3af" stroke-width="0.75" opacity="0.94" />
<text class="label" x="16" y="3422">T-SDH-QLT-041-INS 結合テストドキュメントの起草・レビュー instruction.md の起草・レビュー</text>
<line class="row-grid" x1="0" y1="3430" x2="868" y2="3430" />
<rect x="590" y="3408" width="14" height="12" rx="4" fill="#d1d5db" stroke="#9ca3af" stroke-width="0.75" opacity="0.94" />
<text class="label" x="16" y="3446">T-SDH-QLT-061-INS システムテストドキュメントの起草・レビュー instruction.md の起草・レビュー</text>
<line class="row-grid" x1="0" y1="3454" x2="868" y2="3454" />
<rect x="590" y="3432" width="14" height="12" rx="4" fill="#d1d5db" stroke="#9ca3af" stroke-width="0.75" opacity="0.94" />
<text class="label" x="16" y="3470">T-SDH-QLT-031-SMP 単体テストドキュメントの起草・レビュー sample.md の起草・レビュー</text>
<line class="row-grid" x1="0" y1="3478" x2="868" y2="3478" />
<rect x="604" y="3456" width="14" height="12" rx="4" fill="#d1d5db" stroke="#9ca3af" stroke-width="0.75" opacity="0.94" />
<text class="label" x="16" y="3494">T-SDH-QLT-041-SMP 結合テストドキュメントの起草・レビュー sample.md の起草・レビュー</text>
<line class="row-grid" x1="0" y1="3502" x2="868" y2="3502" />
<rect x="604" y="3480" width="14" height="12" rx="4" fill="#d1d5db" stroke="#9ca3af" stroke-width="0.75" opacity="0.94" />
<text class="label" x="16" y="3518">T-SDH-QLT-051-INS 外部結合テストの起草・レビュー instruction.md の起草・レビュー</text>
<line class="row-grid" x1="0" y1="3526" x2="868" y2="3526" />
<rect x="604" y="3504" width="14" height="12" rx="4" fill="#d1d5db" stroke="#9ca3af" stroke-width="0.75" opacity="0.94" />
<text class="label" x="16" y="3542">T-SDH-QLT-061-SMP システムテストドキュメントの起草・レビュー sample.md の起草・レビュー</text>
<line class="row-grid" x1="0" y1="3550" x2="868" y2="3550" />
<rect x="604" y="3528" width="14" height="12" rx="4" fill="#d1d5db" stroke="#9ca3af" stroke-width="0.75" opacity="0.94" />
<text class="label" x="16" y="3566">T-SDH-QLT-071-INS 受入テストドキュメントの起草・レビュー instruction.md の起草・レビュー</text>
<line class="row-grid" x1="0" y1="3574" x2="868" y2="3574" />
<rect x="604" y="3552" width="14" height="12" rx="4" fill="#d1d5db" stroke="#9ca3af" stroke-width="0.75" opacity="0.94" />
<text class="label" x="16" y="3590">T-SDH-QLT-051-SMP 外部結合テストの起草・レビュー sample.md の起草・レビュー</text>
<line class="row-grid" x1="0" y1="3598" x2="868" y2="3598" />
<rect x="618" y="3576" width="14" height="12" rx="4" fill="#d1d5db" stroke="#9ca3af" stroke-width="0.75" opacity="0.94" />
<text class="label" x="16" y="3614">T-SDH-QLT-071-SMP 受入テストドキュメントの起草・レビュー sample.md の起草・レビュー</text>
<line class="row-grid" x1="0" y1="3622" x2="868" y2="3622" />
<rect x="618" y="3600" width="14" height="12" rx="4" fill="#d1d5db" stroke="#9ca3af" stroke-width="0.75" opacity="0.94" />
<text class="label" x="16" y="3638">M-SDH-QLT-900 品質ドメイン完了</text>
<line class="row-grid" x1="0" y1="3646" x2="868" y2="3646" />
<polygon points="632,3629 639,3636 632,3643 625,3636" fill="#b45309" />
</svg>